<?xml version="1.0" encoding="UTF-8"?>
<svg xmlns="http://www.w3.org/2000/svg" version="1.1" viewBox="0 0 421.7 16.7">
  <defs>
    <style>
      .cls-1 {
        fill: #756e65;
      }
    </style>
  </defs>
  <!-- Generator: Adobe Illustrator 28.6.0, SVG Export Plug-In . SVG Version: 1.2.0 Build 709)  -->
  <g>
    <g id="_圖層_1" data-name="圖層_1">
      <g>
        <g>
          <path class="cls-1" d="M0,1.1C16.7-.4,33.4.2,50.2,0c29,0,70.9.2,100.3.4,0,0,25.1.2,25.1.2,4.2,0,8.5.1,12.5,1.9,3.9,1.7,6.9,5,8.9,8.7-2.2-3.5-5.3-6.6-9.2-8.1-3.9-1.5-8.1-1.5-12.2-1.4-38.8.2-86.8.6-125.4.5-16.7-.1-33.4.4-50.2-1.1h0Z"/>
          <path class="cls-1" d="M421.7,1.1c-16.7,1.5-33.4.9-50.2,1.1-38.6,0-86.6-.3-125.4-.5-4.2,0-8.4,0-12.2,1.4-3.9,1.5-6.9,4.6-9.2,8.1,2.1-3.7,5-7,8.9-8.7,3.9-1.8,8.3-1.8,12.5-1.9l25.1-.2c29.5-.2,71.2-.4,100.3-.4,16.7.1,33.4-.4,50.2,1.1h0Z"/>
        </g>
        <g>
          <path class="cls-1" d="M210.8,16.7c-4.1-3.9-8.3-7.8-12.6-11.9,3.2-3.9,9.5-4.1,13-.4,3.3,3.3,3.2,9.3-.4,12.3h0ZM210.8,16.7c6.6-8-3.6-18.3-11.5-11.5,0,0,0-.7,0-.7,3.8,4,7.6,8.1,11.5,12.2h0Z"/>
          <path class="cls-1" d="M210.8,16.7c4-4.1,7.8-8.2,11.5-12.2v.7c-7.9-6.8-18.1,3.5-11.5,11.5h0ZM210.8,16.7c-3.6-3-3.7-9-.4-12.3,3.5-3.7,9.8-3.5,13,.4-4.3,4-8.5,8-12.6,11.9h0Z"/>
        </g>
      </g>
    </g>
  </g>
</svg>