<?xml version="1.0" encoding="UTF-8"?>
<svg xmlns="http://www.w3.org/2000/svg" version="1.1" viewBox="0 0 192.3 41.1">
  <defs>
    <style>
      .cls-1 {
        fill: #2e2923;
        fill-rule: evenodd;
      }

      .cls-2 {
        isolation: isolate;
      }

      .cls-3 {
        mix-blend-mode: multiply;
        opacity: .8;
      }
    </style>
  </defs>
  <!-- Generator: Adobe Illustrator 28.6.0, SVG Export Plug-In . SVG Version: 1.2.0 Build 709)  -->
  <g class="cls-2">
    <g id="_圖層_1" data-name="圖層_1">
      <g class="cls-3">
        <g>
          <path class="cls-1" d="M3.2,30.2c.2.3.4.3.5,0-.2,0-.4-.3-.5,0Z"/>
          <path class="cls-1" d="M3.4,29.3c.1-.1.4.3.5,0-.2,0-.5-.5-.5,0Z"/>
          <path class="cls-1" d="M5.1,30.7c.2.2.2-.1.4-.2-.1-.2-.2-.1-.3-.2,0,.2,0,.3,0,.5Z"/>
          <path class="cls-1" d="M11.7,37.7l.3.3c0-.3.2-.1.3-.4-.2-.3-.4-.3-.5,0Z"/>
          <path class="cls-1" d="M4.4,29.2c0,.3.4.5.5.2,0-.3-.2,0-.4-.4,0,.1,0,.3,0,.2Z"/>
          <path class="cls-1" d="M12.5,37.8c.2,0,.3.3.4.5,0-.3,0-.6-.3-.9l-.2.4Z"/>
          <path class="cls-1" d="M8.2,31c0,.3.4.4.4,0-.2-.4-.2.4-.4,0Z"/>
          <path class="cls-1" d="M14.7,38.2c0,0,.2-.1.2,0,.1.2.2-.3.3-.4.1.3.3.4.6.6-.1-.7.2-.7.5-1-.2,0-.3.1-.5-.2,0,.5,0,.3-.2.6,0-.1,0-.2-.2-.3-.1.2-.3.3-.4,0-.1.2-.2.5-.2.7Z"/>
          <path class="cls-1" d="M9,31.2l.3.3c0-.1,0-.4.1-.3,0-.3-.4-.4-.4,0Z"/>
          <path class="cls-1" d="M9.2,28.6c.2,0,.3,0,.5-.3-.2,0-.5-.1-.5.3Z"/>
          <path class="cls-1" d="M19.6,39.7c.2.3.5.1.4-.2-.1,0-.3,0-.4.2Z"/>
          <path class="cls-1" d="M10.9,28.6c.2,0,.5.5.6,0-.2,0-.4-.2-.6,0Z"/>
          <path class="cls-1" d="M17.8,33.8c.3.1.2-.3.4-.5,0,0-.2,0-.3-.2,0,.6-.3.2-.2.7Z"/>
          <path class="cls-1" d="M12.6,27c0-.3-.4-.3-.6-.7,0,.4.4.5.6.7Z"/>
          <path class="cls-1" d="M14.7,27.4c.2,0,.4,0,.5-.2-.3-.1-.5,0-.7-.3-.2.2.4.3.2.5Z"/>
          <path class="cls-1" d="M22.7,36.9c0,.6.3,0,.5.1,0-.5-.3,0-.5-.1Z"/>
          <path class="cls-1" d="M22.8,35c-.2-.3-.2.2-.4-.2,0,.3,0,.5.1.7,0-.5.4,0,.3-.5Z"/>
          <path class="cls-1" d="M26.7,40c.2.2.5.4.6,0-.2,0-.4-.2-.6,0Z"/>
          <path class="cls-1" d="M12.5,22.4c.2.3.2,0,.4.3.2-.3,0-.5-.2-.7l-.2.4Z"/>
          <path class="cls-1" d="M14.4,24.5c.2.4.4.2.5.3,0-.3-.5-.7-.5-.3Z"/>
          <path class="cls-1" d="M13.7,22.6c0,0,0,0,.1,0,.5.4.9,0,1.4.2.2-.3,0-.6,0-.9-.3-.2-.2.3-.4.3-.3-.2-.1-.4-.4-.4,0,.5-.3.4-.4.7-.2-.3-.3-.2-.5-.4-.2.2.2.3,0,.6Z"/>
          <path class="cls-1" d="M25.5,35.5c-.1-.1.2-.3.2-.3,0-.5-.2,0-.3-.2-.2.2,0,.4,0,.6.2.2.3.2.5.3.1-.3-.2-.5-.3-.4Z"/>
          <path class="cls-1" d="M8.2,15c.2.2.5.6.6.1-.2,0-.5-.3-.6-.1Z"/>
          <path class="cls-1" d="M8.1,14.3c0,.3.4.3.4,0-.2-.5-.3,0-.4,0Z"/>
          <path class="cls-1" d="M9,14.9c.1-.2,0-.4,0-.7-.1,0-.2,0-.3,0,0,.3,0,.5.2.7Z"/>
          <path class="cls-1" d="M26.2,35.3c0,.6.5.1.7.4,0-.6-.5-.5-.7-.4Z"/>
          <path class="cls-1" d="M5.7,9.4c.2,0,.4-.2.7-.7-.2.2-.5.2-.7.7Z"/>
          <path class="cls-1" d="M28.4,35.7c0-.3-.4-.7-.5-.3,0,.3.4.8.5.3Z"/>
          <path class="cls-1" d="M13.1,17.1c.3.3.9,0,.5-.5,0,.5-.3.3-.5.5Z"/>
          <path class="cls-1" d="M18,22.5c.1.5.6.4.8,0-.1-.1,0-.2,0-.4-.3-.4-.4.7-.8.4Z"/>
          <path class="cls-1" d="M9.5,11.8c.3.4.6.4.8,0-.2.1-.6-.5-.8,0Z"/>
          <path class="cls-1" d="M29.4,35.9c0,0,.2,0,.1.2.3-.4.7.1,1-.4-.5,0-.9-.9-1.2.2Z"/>
          <path class="cls-1" d="M15.7,17.2c.2.4.3-.2.4-.3,0,0-.2,0-.3-.2,0,.2,0,.3-.1.5Z"/>
          <path class="cls-1" d="M30.7,35.7c0,.3.2,0,.3.3-.2-.6.2,0,.3-.5-.2-.5-.2.4-.4,0,0,.1-.1.3-.2.2Z"/>
          <path class="cls-1" d="M31.4,35.8c.4.1.5.8.8.4-.4-.3,0-.6-.3-.9,0,.6-.3.1-.4.5Z"/>
          <path class="cls-1" d="M15.3,13.3c.3,0,.6-.2.3-.7-.2.3-.3.2-.3.7Z"/>
          <path class="cls-1" d="M33.3,35.7c.3.4.5,0,.7.2.1.2,0,.4,0,.6.4.2.3-.7.8-.6-.2-.4-.1-.2-.4-.5-.2.4,0,.1.2.4-.4,0-.9-.5-1.2-.1Z"/>
          <path class="cls-1" d="M26,23.5c.3.2.5-.2.6-.5-.3,0-.5,0-.6.5Z"/>
          <path class="cls-1" d="M21.4,17.4c.2,0,0,.1.3.3,0-.2,0-.4,0-.6-.1,0-.2.2-.3.3Z"/>
          <path class="cls-1" d="M27,18c.3,0,.5,0,.7-.3-.2.2-.7-.1-.7.3Z"/>
          <path class="cls-1" d="M21.9,7.7c.2.2.3.1.5.2.2-.2-.4-.3-.2-.5-.1,0-.2.2-.3.3Z"/>
          <path class="cls-1" d="M18.1,3c.3.2.5,0,.7-.4-.2.1-.7,0-.7.4Z"/>
          <path class="cls-1" d="M33.3,20.4l.3.4c0-.1,0-.3,0-.2,0-.3-.3-.5-.4-.2Z"/>
          <path class="cls-1" d="M23.1,5.6c.3.3.5,0,.8.4,0-.2,0-.4-.1-.6.1-.2.4.1.4-.3-.2-.1-.2.3-.4,0,0,.7-.4.2-.7.6Z"/>
          <path class="cls-1" d="M34.2,18.2c0,0,.2.2.3,0,.2-.3,0-.6-.2-.6-.2.2.2.4,0,.6Z"/>
          <path class="cls-1" d="M26.6,4.9c0,.5.9.5.8,0-.3,0-.5.4-.8,0Z"/>
          <path class="cls-1" d="M25.7,1.8c.2.3.4.2.6-.2-.2,0-.4,0-.6.2Z"/>
          <path class="cls-1" d="M29.7,6.2c.2,0,.4.3.6,0-.2-.1-.4-.2-.6,0Z"/>
          <path class="cls-1" d="M32,6.8c.2.2.3,0,.4,0,0-.2-.1-.3-.2-.4l-.2.4Z"/>
          <path class="cls-1" d="M32.8,6.5c.2.3.3,0,.5.2,0-.2-.4-.6-.5-.2Z"/>
          <path class="cls-1" d="M42.6,18.7c0,0,0-.1,0-.2,0,0,.2,0,.2.2.1-.1,0-.6.3-.5.2-.3-.3,0-.1-.4-.2,0-.7.4-.3.8Z"/>
          <path class="cls-1" d="M43.1,18c0,.2.2,0,.2,0,0,.1.2.2.1.4.1,0,.2-.2.3-.3l-.3-.5c0,.3-.2.1-.3.4Z"/>
          <path class="cls-1" d="M44.6,19.8c.2.1.3,0,.4-.2-.2-.3-.3,0-.4.2Z"/>
          <path class="cls-1" d="M36.2,7.5c.3,0,.2-.6,0-.7-.3,0,0,.5,0,.7Z"/>
          <path class="cls-1" d="M35.7,6.4c.3.1.8.4.9-.3-.3.2-.6-.4-.9.3Z"/>
          <path class="cls-1" d="M36.6,7.4c.2,0,.4,0,.6-.2-.2,0-.4,0-.6-.2,0,.1.1.2,0,.4Z"/>
          <path class="cls-1" d="M37.8,8.9c.5-.2.7,0,.2-.8-.2.3-.2.6-.2.8Z"/>
          <path class="cls-1" d="M46.3,19.5c.2.3.4.3.6,0-.2,0-.4-.3-.6,0Z"/>
          <path class="cls-1" d="M49.2,20.3c.5-.5,1-.1,1.3-.9-.4,0-.8,0-1.2.4,0-.1,0-.2,0-.4-.4-.3-.4.4-.1.8Z"/>
          <path class="cls-1" d="M41.3,7.8c.3.2,0-.7.3-.5,0-.6-.4.3-.3.5Z"/>
          <path class="cls-1" d="M41.6,7.5c.2.1.4,0,.5-.3-.2-.1-.4,0-.5.3Z"/>
          <path class="cls-1" d="M51.8,19.5l.3.4c.1-.2,0-.3.1-.5-.1,0-.3-.1-.4.1Z"/>
          <path class="cls-1" d="M45.7,9.7c0-.2,0-.4.1-.6-.3,0-.6.6-.1.6Z"/>
          <path class="cls-1" d="M53.5,1.4c.3.5.5,0,.5-.5-.2,0-.4.3-.5.5Z"/>
          <path class="cls-1" d="M59.5,1.7c.3.3.2-.5.5,0,.1.3-.2.2-.3.5.2.2.4,0,.5-.5-.2,0-.2-.1-.3-.4.2-.5.5.2.8-.3-.1,0-.3,0-.4-.3-.3.5-.6.3-.8,0,0,.3.3.7,0,1Z"/>
          <path class="cls-1" d="M61.8,1.5l.3.4c.2-.3.2-.2.3-.5-.2-.3-.5.5-.4-.2-.2-.2-.2.3-.2.4Z"/>
          <path class="cls-1" d="M62.7,2c0-.2.2-.5.3-.7l-.2-.3c0,.1-.1.1-.2,0,0,.3,0,.2-.2.5.1.2,0,.3.2.5Z"/>
          <path class="cls-1" d="M63.7,2.3c.2-.4.4,0,.6-.4-.3-.2-.5.2-.8-.3,0,.4,0,.2.2.6Z"/>
          <path class="cls-1" d="M64.6,1.4c-.2.2-.2.4,0,.6,0,0,.2,0,.2-.2,0-.2,0-.3-.2-.5Z"/>
          <path class="cls-1" d="M64.8,1.7c.1.2,0,.3.2.5.1-.1,0-.4.2-.3,0-.2-.1-.3-.2-.5l-.2.3Z"/>
          <path class="cls-1" d="M65.2,1c0,.2.5.8.6.4-.2-.2-.4-.5-.6-.4Z"/>
          <path class="cls-1" d="M68.6,2c.1-.3.3-.2.4-.4-.1-.4-.3,0-.4-.3-.1.2-.2.5,0,.7Z"/>
          <path class="cls-1" d="M70.5,1.8c.2.2.3.2.5,0l-.2-.4-.2.4Z"/>
          <path class="cls-1" d="M71.6,1.9c.2.1.5.1.7.2.2-.2-.4-.4-.2-.6-.2-.1-.1.1-.2.3-.1.1-.2-.2-.4.2Z"/>
          <path class="cls-1" d="M72.4.9c.1.2.3-.2.4,0,0-.3-.2-.4-.4-.5-.1.2.2.4,0,.6Z"/>
          <path class="cls-1" d="M73.8,2.4c.4-.5.7,0,1.1,0,.2-.6-.4-.6-.6-1.1,0,.5,0,.6-.4.7-.3-.4-.2-.7-.5-.7,0,.5,0,.6.4,1Z"/>
          <path class="cls-1" d="M73.8,1.2c.3.1.5,0,.8.1,0-.3-.6-.7-.8-.1Z"/>
          <path class="cls-1" d="M75.1.8c.1.2.2,0,.3.3.2-.3-.2-.6,0-.8-.1,0-.2,0-.4.2.3.3.3,0,0,.4Z"/>
          <path class="cls-1" d="M76.8.7c0,.2.2.2.3.3,0-.2.1-.4,0-.6,0,.3,0,.1-.2.4Z"/>
          <path class="cls-1" d="M97.4,3.9c.3.3.6.1.9-.2-.3-.2-.5-.5-.7-.5,0,.2,0,.5-.2.7Z"/>
          <path class="cls-1" d="M103.2,2.8c.1.4.3,0,.4.1.1-.3-.3-.5-.4-.1Z"/>
          <path class="cls-1" d="M109.2,3.8c0,.4.5.4.7,0-.2-.2-.5,0-.7,0Z"/>
          <path class="cls-1" d="M112.1,4.2c.3-.2.8-.2.9-.5-.3,0-.8,0-.9.5Z"/>
          <path class="cls-1" d="M117.9,4c.2.2.4,0,.6.2,0-.3-.4-.6-.6-.2Z"/>
          <path class="cls-1" d="M123.9,6c0-.2.2-.4.2-.6-.1,0-.2,0-.4.1,0,.2,0,.3.1.5Z"/>
          <path class="cls-1" d="M140.3,39.2c.4.3,1-.4,1.4-.1-.1-.7-.9-.1-1.4.1Z"/>
          <path class="cls-1" d="M141.8,38.8c.1.3.3.3.6,0-.2,0-.4,0-.6,0Z"/>
          <path class="cls-1" d="M135.1,5.6c0-.1,0-.3,0-.5.4,0,.5.1,1,0-.4-.3-.8-.4-1.2-.2.2.3.1.5.2.7Z"/>
          <path class="cls-1" d="M136.9,7.2c0-.3.3-.5.2-.8-.2,0-.3.5-.2.8Z"/>
          <path class="cls-1" d="M136.5,5.4c0,.1,0,.3.1.5.2-.2.3-.3.3-.5-.1-.2-.3.3-.4,0Z"/>
          <path class="cls-1" d="M150.8,5.5c.2.2.3-.2.5-.4-.1,0-.2,0-.4.1,0,0,0,.2-.1.3Z"/>
          <path class="cls-1" d="M151.9,4.5c.1.2.4-.3.4-.5-.2,0-.4.1-.4.5Z"/>
          <path class="cls-1" d="M152.8,5.3c.5.3,1,.1,1.5.1,0-.5.3-.3.5-.5-.7-.1-1.3.3-2.1.4Z"/>
          <path class="cls-1" d="M154.6,5.3c.2.3.5,0,.7-.1-.2-.2-.4-.2-.7.1Z"/>
          <path class="cls-1" d="M155.5,5.2c.2,0,.4.3.7.2,0-.3-.4-.6-.7-.2Z"/>
          <path class="cls-1" d="M156.1,6c.3,0,.4.3.5.5.2-.4.3-.3.3-.9-.1.6-.5.1-.8.4Z"/>
          <path class="cls-1" d="M157.3,1c-.1.4.3.3.5.1,0-.2-.2-.2-.2-.3-.1.1-.1.4-.2.2Z"/>
          <path class="cls-1" d="M159.5,4.9c0,0,0,.1,0,.2v.2c.3-.4.9,0,1.3-.4,0-.1,0-.2,0-.3-.3.2-.6,0-.9.4-.2-.5.2-.3.2-.7,0-.3-.4.5-.5.2-.1,0,.2.7-.1.4Z"/>
          <path class="cls-1" d="M158.4,1c.4.1.8.1,1.2-.2-.4,0-.8,0-1.2.2Z"/>
          <path class="cls-1" d="M161,4.9c.2,0,0,.6.4.6,0-.4,0-.6.4-.7-.2-.3-.5,0-.7,0Z"/>
          <path class="cls-1" d="M161.6,4.4c.2.3.6,0,.9-.2-.4-.2-.5,0-.9.2Z"/>
          <path class="cls-1" d="M164.2,4.8c0-.1-.1-.3,0-.5-.4-.1-.9.7-1.2.1-.2,1,.9,0,1.2.4Z"/>
          <path class="cls-1" d="M162.9,4.1c.4.4.9-.1,1.3-.4-.4-.4-.9.2-1.3.4Z"/>
          <path class="cls-1" d="M164.1,2.9c-.1.5.4,0,.6,0-.2-.3-.5.3-.6,0Z"/>
          <path class="cls-1" d="M164.3,3.5c.3.2.6.5,1,0-.4.4-.6-.3-1,0Z"/>
          <path class="cls-1" d="M165.9,4.5c-.3-.5.2-.8.4-.6,0,.4-.2.4-.4.6,0,.5.3-.1.4.3.3-.8,1.2-1.5,1.6-1.8,0-.6-.9.3-1,.7,0-.5-.4-.2-.2-.7-.5.5-1,1.1-1.8,1.9.2.3.6,0,.9-.4Z"/>
          <path class="cls-1" d="M167.6,3.8c0,.1,0,.3,0,.5.2,0,.4-.4.5-.3,0-.1,0-.3.1-.4-.1-.1-.2-.1-.3-.3-.2.2-.2.8-.5.5Z"/>
          <path class="cls-1" d="M168.2,4.7c.2,0,.6-.2.4-.6-.3.2-.2.4-.4.6Z"/>
          <path class="cls-1" d="M168.7,3.7c-.2.4.3,0,.3.4.1-.3,0-.4.3-.5-.1-.3-.4.1-.6,0Z"/>
          <path class="cls-1" d="M.4,29.4c-.1-.2,0-.4-.2-.6,0,.2-.2.1-.2.3.5,0,.2,1.6.4.4.5,0,.9-.3,1.5,0,.1-.4.2-.3.4,0,0-.1-.1-.2,0-.4.2-.2.1.3.4.4,0-.4,0-.4.2-1.2-.2-.1-.4.3-.5.6-.3-.5-.4-.1-.5,0-.6-.7-1-.2-1.3-.5-.2.4.4.6.5.6-.1.5-.5-.2-.6.3Z"/>
          <path class="cls-1" d="M6,31.9c.3.2.6,0,.9-.1-.2-.1-.1-.3-.3-.5,0,.8-.4.3-.6.6Z"/>
          <path class="cls-1" d="M7.4,31.8c.2,0,.2-.2,0-.5,0-.1.2,0,.3.1.2-.2,0-.4.2-.7.3,0,.7,0,1-.3.6.9.8,0,1.3.2.1.7-.6.3-.5,1,.6-.4,1.1.2,1.6-.6.2.4.4.7.6.1.2.4.2.8,0,1,.1.2.2,0,.3,0-.2-.3.1-.6-.2-.9.5.4.7-.3,1.2-.2-.4.4-.7.9-.8.9.3.6.8-.4,1.1-.6.1.5.5.3.7.2,0-.1-.1-.2,0-.4,0,0,.1,0,.2-.1,0,.1,0,.3.1.4.5,0,.9-.5,1.3-.6,0,0,0,.2.1.3-.5.2-.6.6-1,.8.5.4.8,0,1.2.1,0-.3-.2,0-.3-.3,0-.2.2-.2.2-.3.3.2.2.7.5.7,0-.2,0-.3,0-.5,0,0-.1,0-.2.1-.2-.2-.3-.9-.3-.3-.4-.5,0-.7.2-.7-.2.3.4.3.2.7.2.2.2-.5.4-.4.2.3-.1.6-.3.7-.1.3.2.5.1.7.2.2.4-.2.6,0,0,.4-.2.3-.2.8.3.5.4-.2.7.2,0-.3-.3-.1-.4-.5.2,0,.3,0,.5,0-.3-.3-.2-.6-.2-1,0,0,.1,0,.2-.1.3.2,0,.4.2.5.2-.6,1.5-.3,1.5.4,0-.3.3-.2.3-.6.3.2.2.5.4.8-.3,0-.5.3-.8.2.2.4.9.4,1.2.2.1.2,0,.4.2.5.2-.3.4-.6.8-.2,0-.5.2-.4,0-.9.2.4.3-.2.7.1-.3-.6.4-.3.3-.8.4.2-.2.6.2.8.1-.4.3-.4.5-.3,0,.2,0,.4,0,.6-.5.3-1.1,0-1.5.5.2.3.2-.2.4.2.6-1.1,1.5.4,2.1-.5.8.9,2-.2,2.5.7.2,0,.5,0,.7.1,0-.7.5-.2.7-.4,0,.2,0,.3.1.5,0-.5.4-.5.4-.1.5-.6,1.3.2,1.8-.2-.2-.2,0-.4.2-.6.1.2-.2.4,0,.7.6.4,1-.2,1.5-.3,0,.7.7.7.8.2.1.3.2,0,.4.3.2-1,1.5.3,2-.6.6,1,1.3-.7,1.8.3-.2,0-.3,0-.5.1.2.5.7-.2,1.1,0,.2,0,.9.6.8,0,0-.2.2.3.4.3.4-.4.8,0,1.1-.5.5.3,1.5.2,2.2.2,18.9,1.4,37.5.2,56.3-.1.2.2,0,.4,0,.6-1.4-.7-2.8.3-4.2-.2-.1.4-.2.3-.4.4,0-.2,0,0,.2-.3-.2-.2-.5.4-.7,0-.2.2,0,.5-.1.7-.6-.9-1.5-.6-2.3-.2-.6-.2-1.2-.5-1.9,0,0,0,0-.2,0-.3-1,.5-2.4-.2-3,.5-.2-.3,0-.3-.2-.4,0,.1,0,.2.1.4-1.2-.6-2.2.5-3.5-.3-.1.6-.7,0-1.1,0-.5,0-.9.6-1.1.1-.4.4-.9.4-1.3,0-.2.2.1.4-.1.5,0,.2-.3-.3-.2-.4-.3.5-.6,0-.9.3-.1-.1,0-.2,0-.4-.4.5-.8.2-1.2.4,0-.7,0,0-.3-.4,0,.2-.1.5-.3.4,0-.2,0-.3-.2-.5-.3.7-.8-.3-1.3.5,0-.2-.1-.3,0-.5-.6.2-2.2,0-2.3.5-.3,0-.7-.5-1,.1-.3-.4-.9-.7-1-.2-1-.2-2-.1-3,0-1,0-2,.1-3.1,0-.1.1,0,.2,0,.4-.2-.3-.2-.2-.5-.5-1.1.6-2.8-.4-4.1.5-.1-.2,0-.3-.2-.5-.5.1-1,.4-1.5.2,0,.3.2,1.1-.3,1.3-.2-.4,0-.6-.4-.7,0-.3.3-.7.4-.3.2-.4-.4-.6-.3-.2-.7-.7-1.4.3-2.1-.4-.1.6-.6.4-.9,0-.1.1,0,.2,0,.4-.6-.3-1.3,0-1.9-.3,0,.2,0,.3,0,.5-.9-.3-2.1.4-2.9-.4,0,0,0,.2,0,.3-1-.1-2,.2-3-.3-.7.4-1.9,0-2.8,0-.2.2,0,.4-.1.6,0,0-.1,0-.2,0,.1-1-.7-.4-1.1-.7,0,.5.3,0,.4.4.1.4-.2.3-.3.4-.5-1.2-1.2-.4-1.7-.8-.2.2,0,.4-.1.6,0,0-.2-.1-.2,0,0-.1,0-.3.1-.5-.2-.2-.4-.2-.5.1,0,.2.2.4,0,.5.1.2.2-.1.3.2-.1.4-.4-.1-.5.4-.2-.5-.4-.3-.6-.3,0-.4.4,0,.5-.3-.4-.6.1-.2.2-.5-.6-.6-.5.1-1-.3,0,.2.2.4.2.5,0,0-.1,0-.2,0,0,.2,0,.3.1.4-.2.5-.5.3-.7.9-.2-.2-.3-.2-.3-.5-.2,0-.4.8-.7.5-.1-.2.1-.4.2-.6-.2-.2-.3.2-.2.5-.1.3-.4-.4-.5,0,0-.2,0-.4-.2-.5-.2.7-1,.9-1.1.2-.2,0-.5-.2-.7.3-.4-.7-.7.2-.9-.5-.2,1.1-1.1-.5-1.5.4-.5-.2-.9.1-1.4-.2-.2-.2.3,0,0-.4-.6.9-1.5-.2-2.2.3.1.2.2,0,.3.3,0,.1,0,.3,0,.4-.3,0-.7-.5-1.1-.5,0,.2.1.2.2.3.1.3-.3,0-.3.4,0-.2-.1-.3-.3-.3-.1,1.1-.9-.3-1.3.5-.2-.2-.3-.5,0-.7-.2-.3-.3,0-.5-.1,0,.2.1.3.2.4,0,.4-.3.3-.4.4-.1-.2,0-.4,0-.6-.3.4-.8,0-1.1.2,0-.2,0-.4-.2-.5,0,1-1.3.4-1.7.9-.2-.4-.6-.3-.3-.7-.3,0-.2.2-.2.5-.2,0-.4-.8-.7-.4.2.3.2,0,.4.1,0,0,0,.2,0,.3-.6,0-1.2-.4-1.6.3,0-.5,0-.4-.4-.9-.1.3.1.5.3.8-.2.8-.7-.4-.8.3-.4-.3,0-.7-.2-1-.1.3,0,.7,0,1-.2.3-.3-.3-.4-.1,0-.1,0-.3,0-.5-.2-.1-.5.2-.3.5-.5-.6-.4,0-.8-.7-.3.4-.4.3-.8,0,0,.2.2.5,0,.7l.4.4c.2,0,0-.5.3,0,0-.1,0-.2,0-.4.3,0,1.4-.3,1.3.6.1.2.2-.3.3-.4.2.3.1.7,0,.8.1.1.7,0,.4-.4.2-.2.5.2.7-.3.1.2-.2.4,0,.7.2.3.7-.4.7.4.2.2.2-.3,0-.4.2,0,.4,0,.6.2,0-.2,0-.3,0-.5.1-.2.3,0,.4-.1,0,.1,0,.3,0,.5.4-.4.9-.4,1.4-.3.2.2-.2,0-.2.4.2.2.3-.2.5.2-.2.2-.4.3-.7-.1,0,.8-.8,0-1,.5.8.2,1.4-.1,2,0,0-.3-.2,0-.3-.3.3-.5.5.7.7.2-.1,0-.2,0-.4-.1,0-.5.3,0,.4-.4.2.1,0,.3,0,.5,0,0,.2-.1.3,0,0-.6,1-.3,1.5-.2.2.4-.3-.2-.3.2.7-.2,1.5-.3,2.3,0,0,.1,0,.3-.1.5.3.4.4-.2.3-.5.3-.1,0,.5.4.7.3-.2-.3-.4-.1-.6.5,0,.8-.6,1.4,0,0-.7.3-.4.6-.6.2.2.1.4.3.5.3-.4.7-.3,1-.4.1.3-.3.3-.4.3.3.4.7,0,.9-.3.2.2,0,.4.2.6-.1.3-.4,0-.3.5.7,0,1.1-.3,1.7-.8.3.3-.1.6.1.8.6,0,1.2-.2,1.8.3.2-.6.5-.1.7,0,0-.2-.1-.4,0-.6.5.6,1.4-.5,1.5.4.7-.1,1.7.4,2.1-.2.4.5.7,0,1.1.6.2-.5.5,0,.7-.7.2.2,0,.4.3.5,1.3,0,2.5-.3,3.9.3,0-.2.1-.5,0-.5,1.1.3,2.2.5,3.2.1.2-.2.5.4.8.4,0-.1,0-.2,0-.4.3.2.8.4,1.2,0l.4.5c1.1-.5,2.2-.2,3.3,0,0,0,0-.2,0-.3,2,.4,3.9,0,5.8.3.3-.6,1.6,0,2.5,0,.5,0,.8-.4,1.2.1l.2-.4c.2.7.7-.2,1.1.4.9-.7,2.2.1,3.3-.4l.2.4c1.4-.6,2.8.2,4.2-.5.6.6,1.2-.3,1.9.3.4-.5.7.1,1.1-.3,1,.4,2,.2,3.1,0,2.3.2,4.5-.4,6.8,0l.2-.4c0,0,0,.2,0,.3,1.2-.3,2.1-.2,3.3-.5l.2.4c.2,0,0-.7.4-.3,0,.2,0,0-.2.3.1.1.4,0,.4-.2,2.2,0,4.4,0,6.7-.1,2.2,0,4.4-.2,6.6-.4,2.2-.2,4.4-.3,6.6-.5,2.2-.2,4.4-.2,6.7-.2l.2-.2c1.2.4,2.5-.5,3.7.2.2,0,.5-.7.5-.1.2-.3.7-.4,1,0l.3-.3c.4,0,.8.2,1.3,0,2,.6,4.2-.5,6.1.6l.3-.3c.3.5.9.4,1.1,0,0,.2,0,.3.1.5.2-.7.4-.2.5,0,.6-.5,1.2-.3,1.9-.2,0,.2,0,.3,0,.5.2.1.3-.6.5-.2,0,0,0-.2,0-.3.2-.1.3.2.5-.2,0,.1,0,.3,0,.4.2-.2.6-.4.9-.4.1.5-.2.2-.4.5.7-.4,1.4-.5,2.1-.7l.2.5c-.1.4.2-.2,0-.4.4-.4.6-.3,1.1-.5,0,.4.4.3.1.6.2.2.2-.5.5,0,.3-.3-.1-.3-.2-.4.5-.4.8,0,1.2-.4,0,.1,0,.2-.2.3,0,.1.2-.2.3.2,0-.5.2-.2.5-.6.9.8,2.2-1,2.9.2.3-.8.9-.6,1.2-.7,0,.6-.5,0-.7.4,0,.2.2.1.2.3-.3.2-.7.7-1.1.8.1-.9-.8-.1-1,0,.6.5,1.7.3,2.4-.4,0,.2-.1.3-.2.4.4,0,1.1,0,1.2-.8.2-.2,0,.4.2.5.7-.5,1.1-.5,1.9-1,.8.1,1.7.3,2.7-.5.5.2,1.3,0,1.7-.6,1,.5,3.2-1.5,4.4,0-.2-1.2.9-.5,1-1.6.3.1.8-.9.9-.2,1.3-.8,2.5-.7,3.5.3.2-.3.4-.5.4-.9.2,0,.4.1.5.5.2-.4.4-.2.5-.2.2-.5.3-.4.5-.8,0-.3-.2.1-.3,0,.8-.5,2.1-.3,2.8.7.2-.6.6-.8.9-.5.9-1.2,2-1.8,2.9-2.1l.2.6c0-.6.6-.3.9-.6,0,.1,0,.3,0,.4.8,0,1.6,0,2.4-.8.9,0,2.1,0,3-1,.6.2,1.8-.7,2.4-1,.9-.5,1.7-1,2.5-1.8-.2,0-.2-.4-.2-.6.2-.2.3,0,.5-.2-.2-.2-.4,0-.5-.3-.4.6-.7-.4-.9.2-.2.2-.2-.4-.3-.6-.4,0-.8,0-1.1,0,.4-.4.6-.4,1.2-1-1.4,0-3.3-.2-5,.7-.2,0-.3,0-.4-.3,0,.1,0,.3,0,.5-.2,0-.4,0-.6.1,0-.9-1,.3-1.4.9-.1-.3.2-.6.4-.8-.2,0-.4-.2-.3-.6.4-.3.3,0,.6-.5,0-.3-.4.5-.4,0-.2.1-.1.3-.3.5,0,0-.2,0-.2,0,0-.3.4-.5.4-.8,0,0,.1,0,.2,0-.2.5.3.2.6.1,0,.2,0,.3,0,.5.5-.2.8-1.1,1.3-1.2,0,.3-.5.6-.7.9.2,0,.7,0,.6-.5.5.4,1.2-.2,1.8-.6-.3-.4-.8.3-1.2.5.4-.8,1.1-1,1.4-.4.5-.4,1.1-.7,1.4-.3,1.6-.9,2.9-.3,4.4-1-.2-.5-.6-.2-.7-1-.4.1-.7,0-.9-.5-.1,0,0,.2-.2.3-.1-.7-.5-.1-.7-.5,0-.2.1-.4.3-.6-.2-.4-.6,0-.9-.2-.2-.3.2-.4,0-.6-.4-.4-.8.3-1.3.3,0-.5.6-.8.9-1,0,0-.2-.2-.2-.3,0,0,0,.2,0,.3-.3.2-.3-.2-.5.2,0-.2,0-.3,0-.5-.4.2-.8,0-1.2-.1-.2.2-.2.4-.1.7-.2.2-.3.3-.4.3,0-.4,0-.8,0-1.1.5,0,1.3-.6,1.6-1.3.8,0,1.5-.2,2.2.3,0-.8.4-.4.7-.3,0,.4-.3,0-.5.2.2.5.7-.3,1-.3.2.3-.2.4,0,.5.2-.6,1-.4,1.4-.2.5-.5.8-.2,1.3-.3.2-.6-.4-.2-.5-.3.5-.3,1.6-.8,2.2,0,.6-.6,2.1.4,2.6-1.1.4.3.7-.5,1-.1,0,.3-.3.2-.3.6,1.1-.4,2.2-1.2,2.5-2.4-.2-.3-.5-.7-.3-1.1-.4-.5-1.2-.6-1.1-1.7-.3.5-.7.2-.9.7,0,.1.2,0,.3-.1,0,.4,0,.2-.3.4,0-.4-.2-.5-.4-.5-.1-.3,0-.4.2-.6-.1,0-.3,0-.3.2-.2-.7-1.2-.3-1.8,0-.5-1-1.4,0-2.2.6v-.2c.4-.9,1.1-.8,1.5-1.4,0-.3-.2,0-.3-.4-1.2.8-1.7.3-2.9.8,0,0,0-.2,0-.3.4,0,1-.4,1.3-.8,0-.3-.3,0-.4-.3,0,.4-.2.5-.3.2,0,.3,0,.5-.2.7-.3-.3-1.1-.1-1.1.7-.2.3,0-.6-.2-.3,0-.2.3-.1.2-.5-.2-.1-.6.5-.5.8-.2,0,0-.5-.2-.7-.4.2-.2.5-.5.7-.2.2-.1-.3,0-.4-.2-.2-.3.4-.3.5,0,0-.3-.3-.2-.6.2-.3.3-.2.5-.3-.3-.4-.6.2-.6.6-.4,0-.8,0-1.2.6-.3-.3.1-.5,0-.7.3,0,.5-.1.8-.2-.1-.4,0-.8.2-1.1-.1-.2-.3,0-.3.2,0-.4-.3,0-.2-.6-.4.4-.7.3-1.2.3,0-.3.4-.4.4,0,0,0,0-.1,0-.2h.2c-.2-.5-.5-.3-.7-.2,0-.4.2-.7.1-1.1-.2.4-.2.2-.5.4-.2-.3,0-.5-.2-.7-.2.1-.2.3-.3.4-.1-.2,0-.4-.1-.6-.4.1-.7,0-1.1,0,0-.4.2-.2.4-.6-.1-.3-.4.2-.5-.2,0,.1-.2.3-.1.4-.8-.5-1.8.1-2.6-.3,0,.1,0,.3,0,.4-.2.2-.4.4-.5.3,0-1.5-1.2.1-1.7-.2.4-1.3.9-.8,1.5-1.2-.2-.3-.6.2-.6-.4l-.5.4c-.1-.2,0-.3,0-.5.2,0,.4-.3.5,0,0-.4.2-.2.3-.6-.1-.8-.7.8-.9,0-.4.4-.7.9-1.1,1.3-.2-.3,0-.5.1-.7-.1-.5-.4-.2-.6-.3,0,.2-.1.5-.4.7,0,.1.3-.2.3.3-.2.2-.4.1-.6-.1l-.7.7c0-.6.2-.4-.2-.5-.2-.3.2-.5,0-.7-.2.9-.5.5-1,1.2-.3-.2-.7-.3-1-.6-.4.8-.8.9-1.3,1.3-.2-.3.3-.4.2-.7-.6,0-1.3,1.1-1.6,1.7.5.3.9-.9,1.3-1,0,.2,0,.3,0,.5.1.2.5-.3.3-.5.4.8,1.7-1.2,2.2,0-.6,1-1.5.9-2.1.7-.6,1.2-1.4.9-2.2.9.3-.5.5-.9.6-1.5-.2.4-.3.1-.6.4-.4-1.1-.8.4-1.2-.5-.6.3-.4.2-1,.4.1.2,0,.3,0,.5-.2.1-.3,0-.5.3-.2-.4.2-.5.3-.5,0-.4-.7,0-.8.4-.2,0-.5.2-.7-.3-.3-.1-.8.8-1.1.4-.1-.6.3-1,.6-1.5-.4,0-.7.7-1.3.5-.2-.4,0-.4-.3-.4-.2.3.3.2,0,.5.2,0,.3.2.5,0,0,.5,0,.4.3.4,0,.1,0,.2-.2.3-.2.1-.2-.5-.4-.5,0,.2-.2.3-.1.4-.2.1-.4-.1-.6-.1,0-.3,0-.3.2-.3.1,0,0,.2.1.3,0-.3.2-.5,0-.8-1,1.3-1.8,1.1-2.7,1.7,0-.1-.1-.3,0-.4-.1.3-.8.7-1.2.7,0-.5.7-.6.7-.9.1.4.3.2,0,0-.7.3-1.4.4-1.9.3-.1-.6.7-.3.8-1-.2,0-.3-.2-.5.2-.7-.6-2.3.6-3.1.6-.1-.3.5-.4.2-.7-.2.5-.5.6-.8.7.2.1.3.3.5.2,0,0,0,.2,0,.3-.4.3-.7-.4-1.1.2,0-.2,0-.3-.1-.5-.3.4-.6,0-.9.2,0-.2,0-.3,0-.5-.1-.2-.3.2-.4-.2-.1.1-.1.2,0,.4-1.1-.2-1.8-.2-2.9,0,0-.2,0-.4.2-.5-.2,0-.4.1-.5,0-.3.2,0,.5-.2.7-.2-.4-.5-.3-.8,0-.1-.2,0-.4-.2-.6-.1.2,0,.4-.1.6-.3-.6-.3,0-.7,0-.1-.2,0-.4-.2-.6,0,.1,0,.3,0,.5-.4.2-1.1-.5-1-1.1-.6.3.4.6,0,1.1-.2,0-.1-.3-.3-.5-.3.3-.6,0-.8.6-.3,0-.6,0-.6-.6l-.4.4c.2.5.1-.4.3.1-.2.7-1,0-1.6.5.1-.4.1-.7.4-.8-.3-.6-.6.6-1,.7-.2-.6-.5-.1-.8,0-.3-.6-.6-.4-1-.3,0-.4.3,0,.5-.4,0-.3.2-.5.2-.8-.4.5-.9.5-1.2,1.1,0-.2-.2,0-.4-.3,0-.6.7,0,.3-.7.2-.3.3.2.6-.2-.1-.5-.7.2-.6-.4-.2.3-.4.1-.8.4,0-.7-.3,0-.6-.6-.4.5-.7.3-1.1.5,0,.4.2.7.4.4,0,.6-.6.2-.8.1,0-.3.2-.6.2-.6,0-.3-.2-.3-.1-.8-.1.8-.4.2-.7.7,0,.5.3,0,.4.3-.2,0-.4.3-.6,0,0-.2.1,0,.2-.2,0-.2-.2-.1-.1-.3-.2-.3-.1.6-.3,0,0,.3.1.6-.1.9-.3,0,0-.3-.2-.6-.2.2-.1.4-.1.6-.1,0-.2-.1-.3,0-.3-.4.3-.8,0-1.2,0,.2-.2.5-.2.7-.2.4-.3-.4-.6,0-.2-.2-.1-.4-.2-.7-.3.3-.5,0-.8,0-.2.6-.6.4-.9.3-.1-.2.3-.3,0-.5-.3.5-.6.2-1,.2-.3.2,0,.4-.1.6-.4,0,0-.5-.3-.8-.2,0-.2,0-.3.3-.5-1.1-1.2.4-1.8-.2-.3.6-.4.5-.8.8-.1,0-.1-.4-.4-.3,0-.5.4-.2.5-.5-.3-.3-.6,0-.9.3-.3-.2-.1-.4-.3-.8-.2.1-.4-.2-.5.3l-.2-.4c0,.5-.6.6-.8,0-.2.6-.4.3-.7.2-.3.3,0,.1,0,.4-.2.2-.3,0-.4,0-.2-.5,0-.4,0-.7-.3,0-.5-.2-.7-.7,0-.1.1-.1.2,0,0-.4-.6-.2-.8-.3.6.3.4.9,1,1.2-.6.7-.6-.6-1-.5,0,.4.4.9.3,1.2-.1-.4-.5-.3-.6-.8-.2.4-.2.8-.4,1.1.1-.6-.2-.6-.4-1,0-.3.3-.5,0-.7-.1.3-.2.3-.2.7-.2,0-.4-.4-.3.2-.2,0-.3-.3-.5-.5,0-.3.5,0,.5-.6-.3.3-1.8.9-1.5-.1-.2,0-.4.4-.5,0-.3.8-.9,0-1.4.9,0-.6-.5-.3-.3-.8-.2-.2-.2.5-.5.6-.4,0-.9-.4-1.4.1,0-.5-.4-.4-.5,0-.1-.5-.3-.2-.5-.5,0,.3.1.3.2.8-.2,0-.5-.3-.6-.6-.3-.1-.2.5-.6,0,0,.1,0,.3,0,.5.3,0,.5,0,.7.4-.4,0-.9-.1-1.3-.1,0,0,0-.2,0-.3.2-.2.6.3.6-.3-.3-.3-.6.4-1-.2,0,.1-.2.3-.2.2,0,.1,0,.3,0,.5-.3.3-.5,0-.8.2-.2-.2,0-.4-.2-.6-.2.2.1.5-.2.4-.2-.3.2-.4-.1-.5-.2.1,0,.3,0,.5-.9-1.2-2-.2-2.7-.7,0-.2.2-.3.2-.5-.3-.2-.7.6-1-.2,0,.1,0,.3,0,.5-.1.3-.2,0-.4.3-.1-.2,0-.3,0-.5-.2-.3-.4,0-.5-.1,0,.1,0,.3,0,.4-.1.3-.2,0-.4.1,0-.2,0-.3,0-.5l-.3.3c-.2-.2,0-.4-.2-.6-.6,0-1.2.2-1.7,0l.2.3c-.2,0-.3.4-.5.1-.1-.2,0-.3,0-.5-.3-.2-1,.2-1.1.3,0-.4-.2-.5-.5-.2.3.4,0,.4-.1.5.5-.1.8.4,1.4.2,0-.2,0,0-.1-.2.1-.4.2.3.4-.1.2.5.2.3.4.8-.7-.4-1.6.3-2.1-.4,0,0,0,.2,0,.3-.2.2,0-.3-.2-.5-.4.7-.7.2-1.1,0-.1.5-.4.4-.6.3,0-.4.3-.7.2-1.1.2,0,.5,0,.5-.3-.2,0-.2,0-.3-.4-.1.4-.3.3-.3.6-.2.1-.4-.2-.6.1-.2-.7-.8-.3-1.2,0,0-.6-.2-.5-.5-.1,0-.2,0-.3,0-.5-.4-.3-.8.3-1.2.1-.1.2.1.4,0,.5-.1.2-.2-.5-.4,0,0-.2,0-.3,0-.5-.2,0,0,.5-.3.3-.1-.2-.2-.4,0-.6-.3.3-.8-.3-1,.3-.2-.2,0-.4-.2-.6,0,.6-.3,0-.3,0-.4,0-.6.8-1,.2,0,.5-.6.3-.8.3,0-.2,0-.3,0-.5-.2.6-.5,0-.8.6,0,.4.3.5.4.3.1,0-.3.4-.4.3-.1.4.3.1.4.2,0,.2-.1.3-.2.4,0,0-.3-.6-.6,0-.2-.2-.3-.4-.2-.7-.2-.3-.4.1-.6-.3,0,.2,0,.6-.2.5.1-.7.6-1.1,1-1.5-.2,0-.4-.3-.6-.4,0,.2-.1.5-.3.3,0,.1,0,.3,0,.5-.3.2-.1-.2-.4-.5,0,.8-1,.8-1.1,0,0,.5-.3,0-.4.4.2.3.4-.1.6.2,0,.3-.5,0-.7,0,0,.2,0,.4-.2.5-.1.2-.1-.3,0-.4-.2-.2-.2.5,0,.6.1-.1.3.1.4-.2,0,.2,0,.4.1.6-.3.3-.5-.3-.8,0,0-.4.4-1,0-1.1,0,.5,0,.2-.3.4,0-.5.2-.2-.2-.6,0,.4,0,.5-.3.6,0-.7-.4.2-.7-.4.7,0,1.3-.6,2.1-.1-.3-.6.5-.3.4-1,0-.2-.2,0-.3-.3-.1.6-.6.1-.7-.2.2.5-.3.5,0,1-.2,0-.3.3-.5,0-.1-.3.5,0,0-.5.1-.4.2.2.4-.2-.1-.2,0-.3-.2-.5-.4.6-.4.1-.5-.3,0,.8-.8.2-1.1.4-.1.3,0,.2.2.5-.4.6-1.1,0-1.3.6-.2-.2,0-.4,0-.6.3,0,.6-.1,1,0,.1-.2.1-.5,0-.7,0,.2-.2,0-.2,0,0,.1,0,.2,0,.4-.3-.6-1.2,0-1.4.5.1-.9-.4-.5-.6-1.1-.1.2-.2.2-.3,0-.1.5.3.1.4.4.1.4-.2.6-.5,1.2-.3-.5.3-.5.2-.9-.3-.4-.2,0-.5.3.1.2,0,.4,0,.6-.1.1-.3-.3-.4,0,.3.4.5-.4.8.3.3-.4.6-.7.9-.6.1.2-.3.1-.4.2-.1.3.3.3.2,0,0,1.8-1.7.3-2.6.8,0,.1.2.3.1.4.1.3.3-.3.4.1,0,.3-.4.6-.6.2.1.4-.4,1-.6.5,0-.1.4-.4.5-.2,0-.5.1-.5.2-1-.3-.2-.2-.3-.5-.6.4-.2.7.2,1.2-.5-.3-.4,0-.4-.4-.7,0,.3.2.6-.1.9-.4,0-.8-.2-1.2,0,.2.2.2.4.1.6.2,0,.4.1.5.1,0,.3-.2.4-.4.5-.1-.1,0-.2,0-.4-.3-.3,0,.5-.5.3,0-.3.1-.5,0-.8-.4.7-1.2,0-1.7.7,0-.2,0-.4-.2-.6-.2.2-.4,0-.7.4.2.2.2.4.2.6-.3.2-.6,0-.8.3-.1-.4.2-1.1.5-.5-.1-.3,0-.5,0-.8-.2.6-.5.4-1,.8.1.4.3-.2.4.1,0,.5-.3,0-.5.4-.1-.2,0-.3-.2-.5-.1,1-.7,0-1,.4-.2-.7.4-.5.5-.9,0,0-.1,0-.2,0-.3-.2.1-.4-.1-.6-.2.3-.5,0-.4.4-.2.4-.4-.2-.6,0,0-.2,0-.6.2-.4,0-.6-.8.5-.8-.4l-.4.5c.2.2.1.3.2.5-.2.2-.2-.1-.4-.4-.3.7-.7,0-1.4-.3-.3.5-1.1-.3-1.7.1,0,.4.3.1.4.3,0,.5-.7.4-.9.3-.1-.5.4,0,.3-.4-.2-.2-.3-.4-.4-.6-.1.2-.4.7-.6,1.1-.3.1-.2-.5-.4-.6-.1,0-.6.5-.5,0-.4.5-.9.4-1.4.3-.3-.3.2-.5,0-.8-.3.3.1.6-.2.8-.3.3-.3-.5-.5-.7-.2.2-.3,0-.5,0,0-.2,0-.5-.3-.7,0,.1,0,.4-.2.3-.1.3.2,0,.3.4-.1.3-.3,0-.5,0-.1.2.2.3.3.3,0,.2,0,.4,0,.6-.2,0-.2-.3-.4.2-.3-.4,0-.3,0-.6-.3-.3-.2.2-.3.5-.3.1-.6,0-.8,0,0-.3.2-.5.2-.8-.3-.1-.6-.9-.9-.6-.3-.6-.3-.9-.9-.9.2.2.4.2.4.6-.2.3-.4.1-.5,0-.1.2.1.4,0,.5.2,0,.7.5.7,0,0,.2.1.4,0,.6-.2,0-.2-.5-.4,0-.3-.2.1-.4-.1-.5,0,.6-.3.5-.5.3-.1.3,0,.4.3.4,0,.2-.2,0-.3.3,0-.2-.4-.4-.3-.6-.1,0-.5.5-.4,0-.2-.2-.3.8-.6.5,0-.2,0-.3.2-.5-.3,0-.9-.6-1,0,0,0-.5,0-.3-.4-.5,0-1.2.7-1.3,1.7-.1,0-.3,0-.4,0-.3-.3.2-.6-.2-.9.3-.4.3-.1.5,0,.3-.3.3-.6,0-.9,0,0,0,.2,0,.3-.2.2-.3.4-.5,0-.2-.3.2,0,.2-.4-.2-.4-.3.3-.5-.2,0,.9-.8.3-1.2-.2-.2.3-.3,1,.1,1-.1-.5.1-.3.4-.2,0,.2,0,.2-.2,0,.1.4.7.1,1,.3-.9.6-2.4.2-3.6.6,0-.1,0-.2,0-.4-.2-.1-.3-.2-.5.2-.1-.6-.2,0-.5-.4-.2-.2.4-.4,0-.6-.2.6-.3.3-.8.1-.2.5-.4.8-.7.2-.2.4-.4.1-.6.6-.7-1.2-1.8-.3-2.9-.8,0,.4-.2.7-.3.2-.2.2-.1.4-.1.6,0,0-.2,0-.2,0,0-.3,0-.5.1-.8-.4-.3,0,.8-.5.2,0,.7-.2.4-.5.5-.1-.2,0-.4.1-.6-.5.5-1.5.1-1.8,1.2-.3.2-.3,0-.5-.2-.2-.3.1-.6-.1-.8-.2.2-.1.5,0,.7-.3,0-.2.2-.5.4-.2-.5.1-1.1.4-1.1-.1-.1,0-.3,0-.2-.5-.5-1.1-1.1-1.6,0-.2-.2.2-.5,0-.7-.2.5-.8,0-1.2,0-.1.2,0,.3-.1.5,0-.2,0-.3,0-.5-.2,0,0,.1-.2.4,0-.1,0-.2,0-.4-.3-.4-.5,0-.5.4,0-.1-.1-.1-.2,0,0-.1,0-.2,0-.4-.6,0-1.5-.6-1.8,0-.6-.5-.4.2-.7-.1-.2.7-.4.6-.8,1.1.2.2.3.1.5.2-.2.3-.4-.1-.5.1,0-.1,0-.2,0-.4-.4,0-.8-.4-1.2-.4,0-.1,0-.2,0-.4-.2,0-.4-.1-.5.1,0,1-1.4-.3-2,.4.7.1,1.4.1,2.2.3-.2.2-.5,0-.7,0,0,.4.3,0,.5.3l-.3.6c-.1-.1,0-.3-.2-.4-.5.3-.4,1.1-1,.8,0-.3.4-.4.5-.7,0-.2-.2-.4-.1-.6-.1.1-.3,1.3-.8.9-.1-.2,0-.4,0-.6-.3-.3-.4.8-.8.6-.3-.2.1-.5-.2-.7,0,0,0,.1,0,.2,0,.2-.3,0-.2.6-.1,0-.5-.2-.4.3-.1,0-.3.2-.4,0,0-.3.3-.7.2-1-.1.1-.3.3-.5.5-.2-.2,0-.4-.3-.5-.3.2-.7,0-1.1,0-.2-.2.2-.1.3-.5-.5-.2-.4,1-1,.4-.1,0-.2.6-.3.4-.1.3.2,0,.3.3v.3c-.6-.3-.9,0-1.3-.3,0-.5.4-.6.7-.1.1-.2.3-.4.4-.4-.2,0-.8-.6-1,0-.3-.3,0-.6-.3-.8-.2.7-.9.7-1.4.8-.2-.3.2-.1.2-.4-.3,0-.2-.3-.4-.5-.3.3-.6,0-.9.4-.5-.5-.4.2-1,.8.3,0,.5-.3.8-.2.1-.1,0-.2,0-.4.1-.1.3-.2.5,0,.2.1-.2.3-.2.2.1.3.8,1.1,1,.5.3.5.9.4,1.3.2.2.3.1.5.3,0,.7.5,1.3.6,1.9.3,0,.6.7,0,.6.7,0-.2.3-.2.5-.3-.1-.2-.2,0-.3-.2.1,0,.2-.1.3-.2,0,.1,0,.3,0,.5.2.3.3,0,.5.3.1-.1,0-.2,0-.4.2.3.3.5.4,0,.1.1.2.4.3.2.2.2-.3.4,0,.5.2-.7,1.2-.5,1.5,0,.2.2,0-.3.2-.4,0,0,.1,0,.2-.1.3.2.1.4.4.6.3-.6,1.2-.1,1.8,0,.1-.4.3-.3.4-.5-.3-.4-.2.3-.5.1.1-.3,0-.2-.1-.6.3-.6.7-.3.9.1-.1.3-.4-.4-.5,0,.3,0,.5.5.3.8.4,0,.8.2,1.2.2,0,.5,0,.3.3.5-.2.1-.4,0-.6-.3,0,.2.2.4,0,.5.2-.1.5.1.7,0,.1-.3-.1-.5-.3-.7.3-.1.7.1,1-.3,0-.2-.1-.5,0-.7.3-.2,0,.5.4.6,0,.2,0,0-.2.3.4.6,1.2.2,1.6.8.4-.6.9-.2,1.4-.3.2.5-.3.4-.3.9.4.3.4-.6.6.2,0-.3,0-.6,0-.9.4-.2.8-.2,1.3,0,0-.7.5-.5.8-.4,0,.1,0,.2,0,.4,0,.1-.2-.1-.3-.3,0,0,0,.2,0,.3v.2c.1.2.3-.3.6.2-.1.3-.3,0-.4.1,0,.5.4.2.5.3-.3.8.5.1.8.4,0-.3,0-.8.2-.8-.1.5.2.5.3,1,0-.1.1-.1.2,0-.2-.5.3-.5.3-.9.2,0,.7.6,1,0,.2.2,0,.5,0,.7.4.2.7.2.9.5,0-.1.1-.2.2-.4l-.3-.4c-.2.5-.4,0-.7,0,.2-.4.6.2.8-.2,0,1.1.7.5,1.2,1-.2-.1-.3.2-.5,0,0,.5.5.3.7.3,0-.2,0-.5,0-.7.3-.1.2.5.3.6,0-.2.2-.1.2,0,0-.6.2-.6.6,0-.2-.6,0-.2.3-.7.4.5-.4.5,0,.9,0-.7.3-.5.4-.9.3.4-.3.4-.2.7.3,0,.4,0,.5-.5.3.4-.2.2,0,.6.6.6.7-.1,1.2-.4.2.2,0,.4.3.6.2-.4.5,0,.8-.3,0,.2,0,.5,0,.7,0,.2-.2,0-.2.2-.2-.2,0-.4,0-.5-.4.1-.4.4-.9.3.3.1.5.5.8.3.2.3-.3,0,0,.4-.3-.2-.6,0-.8-.2,0,.1,0,.2,0,.4-.2.2,0-.3-.3-.5,0,.2-.2.2-.3,0,0,1.1-.6-.2-.9.5-.2-.2,0-.6-.3-.5-.1.4.1.7,0,1.1.2.3.3,0,.5.2,0-.1,0-.2-.1-.4.2-.3.4,0,.6,0,0,.3-.2.2-.2.6-.2,0-.5,0-.7.2-.2-.2,0-.6-.3-.5-.3,1.4-1.6.4-2.4.5,0-.2.2-.5,0-.7.7.1,1.5.4,2.2.3,0-.3-.3-.3-.4,0-.2-.3-.4-.2-.2-.6-.2,0-.4.2-.6.2,0-.2.1-.5-.2-.7-.1.5-.2.4-.5.3-.2-.2,0-.4-.2-.6-.4-.1-.9.2-1.1.6,0-.2-.2-.3,0-.5.1-.3,0,.5.2,0-.4-.3-.7,0-1.1-.3l-.4.7c-.1-.2-.2-.5-.4-.7-.2.6.2.6.3.9-.2.3-.5-.6-.7,0-.3-.4.2-.7-.2-1.1,0,0,0,.2,0,.3-.4.3-.9,0-1.4,0-.2.4.2.8.4.7-.2.2-.3,1.1-.6.7-.1-.3.2-.1.1-.5-.2-.4-.2.2-.4-.2-.1.4,0,.5-.2.7-.2-.2-.2-.4,0-.5-.4-.4-.2.8-.6.4-.1-.3.3-.6,0-.8-.2.2-.1.4-.2.7,0,0-.2,0-.2,0,0-.3.3-.3.2-.7-.3,0-.3-.2-.6-.6-.6-.3-1.1.2-1.5.3.3-.7-1-.3-1.4-.6,0-.5.6,0,.7-.5-.5-.4-.9.6-1.3,0,0,.1,0,.2.2.4-.1.4-.3,0-.4.4-.5-.9-1,0-1.4-.7-.5.5-.9,0-1.3.6.2,0,0,.1.3.4-.6.6-.9-.4-1-1.1-.1.4,0,.7,0,1.1-.3,0-.5,0-.8-.2-.1-.2.3-.2.4-.5,0,.2-.9-.3-1.1-.1-.2,0-.2-.6,0-.4,0-.4-.2,0-.4,0,0,.1,0,.2.2.4-.5,0-1.4-1-2-.4l-.4-.4c0,.2-.3-.1-.3.2-.6-.9-1,0-1.7-.8-.5.5-1.1.2-1.7-.3.3-.3.3-.5.5-.8-.6,0-1.1.8-1.5.2.1.8-.3,1.2,0,2-.3,0-.6-.3-1-.4.1.8,1.1.2,1.3,1.2,0,.2-.3-.3-.4-.3,0,.6-.5,0-.6.6,0-.3,0-.6-.4-.9,0,.4,0,.6-.3.9-.2-.3-.6-.8-.6-.2-.3-.2-.2-.5-.4-.5-.2-.3,0-.2.1-.5-.3,0-.5-.1-.8.2-.3-.3.1-.6-.1-.9,0,.2,0,.9-.4.5,0,.2-.1.4.2.6-.3.2-.3.2-.3.7,0,.3-.3-.5-.4-.1-.2.4.2.3.3.5-.1,0-.3-.1-.5,0-.2-.2.2-.5-.1-.7,0,.4-.4.2-.3,0-.3.7-.9.5-1.6-.1,0,.2-.1.4,0,.7.3.2.2.2.4.5.1-.2,0-.3-.1-.4.5-.2,1.1.3,1.6.5-.4.4-.9-.3-1.3,0,.2,0,.5.2.7.4-.2.2-.5-.2-.7.4-.2-.2,0-.5-.2-.7,0,.2-.2.1-.3.3-.2-.1,0-.3,0-.5-.1-.2-.2.2-.4-.1,0,.5-.4.3-.4.8-.4-.3,0-.6-.4-.9-.2.3-.8,0-.9-.3-.3.4-.4-.2-.7,0-.2-.3.2-.1.2-.4-.4-.3-.7,0-1.1-.2,0,.3,0,.4,0,.8-.2,0-.6.2-.5.6-.3-.1,0-.4-.2-.5-.2,0-.3.3-.6,0-.2.3,0,.5-.2.5-.3-.3.2-.6,0-.9,0-.3.4.6.4,0-.1-.4-.6-.3-.8,0-.3-.2-.1-.4-.3-.5-.3.4-.8.8-1,.4-.1,0,0,.2,0,.3-.2,0-.4.2-.7-.2,0,.4-.3.1-.3.5.2-.3.6.6.8,0,.3.4,0,.6.5.9-.2.7-.5,0-.6,0-.2.5.3.3.4.7,0-.3.2-.3.4,0,0-.4.3-.2.2-.5-.2-.2-.4,0-.4-.4.1-.2.3.3.4,0,.2.3,0,.5.3.6-.2-.6.3,0,.5,0,0,.1,0,.6-.1.5.2,0,.7.5.9.3.4.7.6.2.9.9.3-.2.2-.6.5-.6,0,.1,0,.3-.1.5.4.5.6.2.9.4,0-.2,0-.3-.2-.4,0-.5.4,0,.3-.5,0,0,.2.6.3.3.2.3,0,.2-.1.5.4.3.6-.2,1,.4,0-1,.5.4.7-.4,0,.6.3.2.4.6-.2,0-.4.2-.7-.2,0,.8-.7.2-1.2-.2,0,.3,0,.5-.2.8.4-.9,1.9,1.1,2.2-.6.4,0,.7-.1,1.2.2,0-.2,0-.3-.2-.4l.3-.6c.1,0,.2,0,.4.1-.1.3-.4,0-.5.5.2.2.4.2.6.4l.2-.4c0,0,.2,0,.3,0,.2.2,0,.4,0,.7.5.1.1-.9.6-.6,0-.2,0-.3-.1-.4,0-.2.2-.3.3-.2-.1.8.8.9,1.2,1.3-.3.3-1.3-.2-1.1.5-.4,0-.8-.2-1.1,0,0,.5.5.1.6.3-.2.3-.3,0-.4.6-.3-.8-.4,0-.6-.9-.2.4,0,.7,0,1-.2.2-.3-.4-.4-.5-.1.2-.3.1-.3.5-.2-.2-.1-.4-.3-.5-.2.5-.2,0-.4,0-.2.3-.5.1-.8.5-.3-.2,0-.4-.2-.6.3-.2.9.2.7-.5-.2,0-.3.3-.4.4,0-.1,0-.2-.2-.4-.2.4-.2.5-.5.1-.3.4.1.7-.1,1,0,0-.1,0-.2.1-.3-.2,0-.5-.1-.7-.2-.4-.3,0-.5-.3-.1.1,0,.2,0,.4-.3.3-.8-.6-1,.3-.7-.2-1.1.2-1.8-.3-.1.5-.4.2-.6.3,0,.4.1.5,0,.8.3.4.3.2.6.7,0-.5,0-.3.1-.8.2-.2.5.1.7-.4.2.3-.1.7-.1,1,.2.2.6-.2.6.4.4,0,.7-.6,1.2,0-.2.3-.5.2-.7.4.2,0,.3,0,.5.3,0-.4,0-.4.2,0,.3-.7,1,.2,1.4,0,.3.2,0,.4,0,.6.2.3.3,0,.5.1-.2-.3-.2-.6-.6-1,0-.1,0-.3,0-.5.1,0,.3,0,.4,0,0,.2,0,.4.2.5.1-.2,0-.3.1-.5,0,0,.2.1.2,0,.2.4,0,.2,0,.6-.1.3-.4-.3-.5.1,1.9.2,3.7,0,5.6.4,0-.8.7-.4.8.1,0-.4-.2-.8-.1-1.2.3-.2.4.5.7.2,0,.1,0,.2,0,.4.3,0,.5-.4.9-.2-.2,1,.8.5,1.3,1.2.2-.2,0-.4-.2-.5.5,0,.3.1.7.3,0-.2-.2-.3-.1-.5.1,0,.2,0,.4.2,0-.2,0-.4.2-.6.2-.3.2.5.5,0,.1.2,0,.4,0,.6.7.2.7.5,1.5.2,0,.1,0,.3,0,.5.5-.6,1.1-.1,1.6-.5,0,.1,0,.2,0,.4.2,0,.4-.3.6-.7.2.2.2.3,0,.5.7-.3,1.5.7,2.1-.3.2.2,0,.4.2.6,0,.2-.2-.1-.3.2.5-.2,1.2-.8,1.9-.4,0-.4-.5-.3-.2-.7.3.4.6.7.9.5.1-.6-.2,0-.4-.3.2-.4.4-.2.6-.3,0,.3,0,.6,0,.9.6-.2.9-.9,1.6-.5,0,.1,0,.2,0,.4.1.2.2,0,.3.3.2-.4,0-.4.3-.6,0,.2.1.4.3.5.3-.2.6-.1.9-.1.2.2-.1.3-.2.2.3.5.7-.1.8-.7.3.2,0,.5,0,.7.4,0,.7-.8,1.2-.5.1.1-.1.6-.2.2.1.4.3.5.6.5,0,0-.3.1,0,.4-.1.1-.3-.2-.3.2.2.3.4,0,.6.2,0-.2,0-.7.3-.5,0-.2-.1,0-.2-.3.2-.2.4-.2.6-.8.3.2,0,.5.2.7.1-.3.4-.3.4-.8.5,0,1.1.3,1.4.1,0-.2,0-.4.1-.6.2.5,0,.8.4.9-.1.4-.3.1-.5.2,0,.5.5,0,.8,0,0-.2,0-.3,0-.5.2.2.3,0,.5.5.2-.2,0-.4.2-.6.2,0,.4.8.6,0,.2.2,0,.4.3.5-.1.2-.3.2-.4.1.9.9,2.2,0,3.3.2,0,.2,0,.5-.2.7.2.1.4-.2.6,0,.1-.2,0-.4,0-.6.5,0,1.5.8,1.9-.4.2.4-.2.3-.1.6.4,0,.5,0,.8,0,0-.2,0-.3,0-.5.4-.2,1.1.8,1.2,0,.1.2,0,.4.3.6.2-.1.3-.6.5-.1.2-1,1,.2,1.4-.5,0,.2.2.4.1.6.3-.2.6-.5.9,0,.1-.2.2-.3.3-.4,0,.1,0,.2.1.4,0-.3.4-.3.2,0,.2-.3.5-.2.8,0,0-.4,0-.4.3-.5,0,.1,0,.2,0,.4.3.1.6,0,.9,0-.2.4-.3,0-.4.5.2,0,.4.2.5,0,0,.2,0,.3-.2.5-.2,0-.4-.6-.6,0,.2-.1.2.6.4.5,0,.4-.1.5-.3.5-.1-.2,0-.4,0-.6-.2-.2-.3.2-.4.5-.2,0-.4.2-.6-.2.4,0,.3-.6.6-.5,0-.3-.4-.2,0-.5.2-.3,0,.6.2.3.3-.4,0-.2-.1-.6,0,0,.2,0,.2,0-.3-.3-1,.2-1.4-.1.1.5-.2.1-.2.5.3,0,.5,0,.8-.4.2,1.2-.8.8-1,1.2-.5-.5,0-.9-.4-1.4,0,.6-.4-.2-.6.4.2,0,.7.1.6.6-.4-.6-.3.3-.8,0-.2-.3,0-.5-.2-.8l-.3.5c0,.1.2.2.1.4-.5.4-1.1.3-1.6.6.2.4.4,0,.5.3-.3.3-.9.6-1-.2.2,0,.3,0,.4-.4,0-.3-.3-.1-.2-.5-.4.1-.6.8-.9,0-.1.4-.3.2-.4.1,0,.2-.1.3,0,.5-.4-.3-1.1.4-1.4-.3-.2,0-.5.2-.7.3,0-.2,0-.3,0-.5-.2-.2-.1.4-.3.5-.3-.3-.1-.6,0-.9-.3-.2-.6,0-.7-.5,0,.4.2.7,0,1.1.4.3,0-.8.6-.4.1.4,0,.6-.2.7-.4.2-.9-.7-1.4-.4-.2-.5.2-.3.3-.6-.2-.3-.4,0-.6.2,0,.1,0,.2.1.4-.1.1-.2-.2-.2.2-.4-.4-.6.6-1-.3,0,.4-.5.5-.6,0-.1.8-.7.8-1.1.5-.1.1,0,.2,0,.4-.3-.3-.6,0-.7-.6l-.4.6c-.4-.3,0-.6-.2-.9-.2.4-.5.3-.7.1,0,.3-.2.6-.3.9-.2-.4.2-.7,0-1.1,0,.9-.7.9-1.1.5-.3.2-.2.7-.5.6,0-.3.2-.7-.2-.5,0-.3,0-.6.2-.8,0,0,0,0-.1,0v-.2c-.3.3-.1.5-.3.7-.3.3-.3-.5-.6-.7-.2.4-.4-.1-.6.1.3.5.5.4.7.1,0,.2.2.4.3.6-.3,0-.2.3-.5,0-.2.2.2.4,0,.6-.3-.4-.8-.3-1.3-.4,0,.2.4.3.5.2.1.7-.4.6-.7.5-.2-.4.4,0,.2-.4-.3-.5-.2.3-.5.1.3-.9-.9.2-1.3-.7,0,.4-.5.6-.8,1,0-.8-.9,0-1,.2-.1-.1-.2-.2-.2-.4,0,.3-.3,0-.5.4-.3-.7-.4,0-.8.2-.1-.2,0-.4-.2-.6-.7.5-1.1.1-1.8.5-.1-.2,0-.5-.2-.4,0,.7-.4.3-.6-.1.2.5-.1,1-.5.8-.2-.4.4,0,.2-.5-.1-.2-.2,0-.3-.3,0,.2.1.4-.1.5,0-.1.1-.3,0-.5-.4-.2-.5,0-.4.4-.3.2,0-.6-.3-.4,0,.4-.1.6-.4.8-.2-.5-.2,0-.5-.4,0,.4-.2.4-.4.2,0-.2.1-.1,0-.5,0,.6-1,0-.8.9-.2-.2-.4.6-.6.3-.2-.4.2-.3.3-.8-.2-.1-.4,0-.6,0,0,1.2-.8.7-1,.9,0-.3.2-.5.3-.7.1.1,0,.2,0,.4.3.2.1-.3.4-.4-.4,0-.5,0-.9-.7-.2.2,0,.4,0,.6-.4-.6-1.7.2-2.2,0,0,0-.4.4-.2.7-.2.4-.6-.3-.5.4-.2-.2,0-.5-.1-.7,0-.1.2.1.3.2.1-.4-.2-.6.1-.8-.3,0-.3.3-.6.6,0-.1,0-.2-.2-.4-.1.3.2.2.1.6-.1.2-.4-.1-.5.3.9.4,1.8.3,2.7.3.3.2,0,.4.2.5.2,0,.1-.2.2-.5.3.3,0,.7-.2,1.1-.5,0-1.2-.8-1.7-.1-.2,0-.4-.3-.6-.2.2.4.2.3-.2.2-.2.2,0,.4,0,.6-.5-.6-.6-.1-.9,0-.2-.2,0-.4-.3-.5,0,.4,0,.7-.3.5-.2-.2.2-.4,0-.5,0,.2-.1.1-.2,0,0,.2,0,.3-.1.5-.5-.2-.8-.2-1.3-.6,0,.8-.4-.1-.6.3-.2-.3.2-.1.2-.5-.2,0-.4.2-.6,0-.1,0-.1.6-.3.4.2.5,0,.4-.2.8.4-.1.7.4,1,0,.3.4,0,.3.2.6.2-.3.2-.6,0-.8.1-.1.3,0,.4-.3.1.6.4.3.6.1.2.4-.2.4-.2.8.2,0,.2-.1.3-.4,0,.1.3.5.7.5,0-.2.1-.5.2-.8.1.3,0,.6.4.9.1-.3.3,0,.5,0,0,.2.1.4.2.6.6-.2,1.2-.1,1.8,0,.3-.6.7.2,1-.3.7.9,1.4-.7,2,.5,0-.3.2-.1.3-.4.2.3.4.3.5.5-.2.2-.4-.1-.5.5,0-.5-.2-.2-.4-.3,0,.4.1.3.3.3-.2.5-.5.2-.8.2-.1-.2.2-.3.3-.2-.2-.5-.7,0-1,0,.2.3.3,0,.4.2-.5,0-.7.4-1.1.5-.2-.2.3-.5,0-.6l-.2.4c-.5-.3-1.1,0-1.4.4.3-.5-.3-.3-.6-.4,0,.2-.1.5.1.4-.3.7-.5-.3-.8.3-.2-.3-.2-.5-.2-.8-.2-.1-.3.5-.3.7-.2.2-.8-.5-.7.2-.1,0-.5-.2-.5-.4-.2.5-.8.6-1.3.3.3-.2.2-.2.4-.7-.2-.2-.4-.3-.7-.5-.1.1.3.6,0,.5,0,.5.3,0,.3,0,.1.6-.5,1.1-.9.5-.4,0-.6,1.2-1,.7l-.2.4c-.2-.2,0-.4,0-.5-.3-.1-.4.6-.6.3-.2-.3.2-.3.2-.5-.6.3-1.1.8-1.7.1-.2,0-.4,0-.5.4.2.1.2.3.1.4-.3-.4-.8.3-1.3-.2,0-.3.2-.5.3-.3-.2-.3-.8-.2-1.1-.2-.2.5.2,0,.4.4-.1.3-.4,0-.5.4,0,.1,0,.3,0,.5.2.2.2,0,.3.3,0,0-.1,0-.2.2-.4-.6-.5-.5-.9-.7.1-.5.4.2.5-.3-.2-.3-.3,0-.5-.4.2.3-.3.7-.5.7,0-.1,0-.2,0-.4-.2-.4-.3,0-.5-.3,0,.2.2.3.2.5-.3.4-.8,0-1.2.3,0,.5.3-.1.5.1,0,0,0,.2.1.3-.3-.1-.3.2-.6.5.1.5.4.3.4-.2.3.2-.1.6.2.5-.1.3-.5.5-.1.9ZM29.3,34c.2-.4.4,0,.6,0-.2.3-.4.2-.6,0ZM46.6,36.6c-.1.4-.5,0-.2.6-.3.3-.6.1-.9,0,.1-.4.2-.1.3-.7.1.1.2.4.3.3,0-.1,0-.2,0-.4.2.2.4-.3.6.3ZM176.5,19.1c.3-.2.3-.6.5-.2,0,.3-.4.5-.5.2ZM178,9.3c.4-.1.5-.2.9-.7,0,.4.2.2.4,0,.1.4.1.5.2,1,.4-.3.2-.7.2-1.1.4.3.2,1.2-.1,1.6-.3-.8-.9.4-1.3,0-.1-.4.3-.2.2-.5-.2.2-.6.1-.5-.2ZM141.2,7.1c-.3.3-.4-.2-.7,0,.3-.3.5-.2.7,0ZM122.6,6.4c0-.3-.5-.3-.3-.7.1.4.6.2.3.7ZM108.6,4.8c.2,0,.3-.2.5.2-.1.3-.6.1-.5-.2ZM25.1,3.2c-.3,0-.5,0-.8-.2.2,0,.7-.2.8.2ZM30.9,8.8c0,.4-1,.4-.9-.2.3.4.6-.3.9.2ZM9.6,9.4c0-.2,0-.3.1-.5.1.2.2,0,.3.2-.1.3-.2.5-.5.2ZM38.9,21.1c-.5,0-.8,0-1.2,0,.4-.3.8-.3,1.2,0ZM27.8,21.8c-.2,0-.6.1-.7-.2.2,0,.6-.2.7.2ZM22,21.7c0,.1,0,.8-.3.4-.1-.2.2-.6.3-.4ZM9,30.1c-.1-.1,0,.1-.1.3-.3-.6-.3.3-.6-.2,0-.5.6-.4.7,0ZM17.3,31.4c-.1,0-.2.4-.4,0,.2-.5.4,0,.4,0ZM25.5,33.6c0,.4-.3.4-.6,0,.1-.4.4-.2.6,0ZM27.1,33.6c-.2.2-.7.1-.7-.3.3.2.4-.2.7.3ZM12.5,15.9c.4,0,.8-.3,1.2-.1-.3.5-1,.4-1.2.1ZM32.7,39.4c0,.4-.4.4-.6.1.1-.5.4-.4.6-.1ZM23.6,27.7c-.2,0-.3.3-.6,0,.1-.3.5-.5.6,0ZM12.2,14.3c-.1-.3-.4.2-.4-.3.2,0,.5-.2.4.3ZM12.6,13.9c.2.5.2,0,.5.2,0,.2.2.3.1.4-.3,0-.3-.4-.5,0l-.2-.3c0-.2,0-.3.1-.5ZM13.9,15c-.2,0-.3.4-.6,0,.1-.5.3-.4.6,0ZM22.7,23.3c0-.2.2-.3.3-.2-.2.3,0,1.2-.3.9-.2-.4.3-.5,0-.7ZM15.7,14.5l-.2.4-.2-.3c0-.4.3-.2.4-.1ZM11.2,9.4c-.2-.6-.2,0-.5-.1-.1-.6.8-.4.5.1ZM24,23.1c.4.4.8-.5,1.1.3,0-.6.4-.6.6-.3-.5.2-.4.8-.8,1.3-.3-.7-.2.1-.4-.5-.3.2-.8.6-1,.2,0,0,.4,0,.2-.2-.2.1-.4,0-.6-.1.1-.3.3-.1.5.1.1-.3.5-.2.4-.7ZM31.5,33.5c0,.5-.3.4-.5.3,0-.4.3-.5.5-.3ZM22.5,21.9l.3.3c0,.2-.2.3-.3.2.2-.2-.2-.4,0-.6ZM13.5,10c-.1.4-.4-.4-.5.1-.2-.2,0-.6-.4-.6.3-.7.6.4.9.5ZM17.7,14.8c-.1.3-.3.7-.5.3.2,0,.3-.6.5-.3ZM14.9,11.6c-.3-.5.2-1.2.5-.9,0,.3,0,.6-.2.7,0-.5-.3-.1-.3.2ZM27.7,24.2c0-.5-.2-.2-.3.2-.2,0-.2-.1-.3-.3-.3.5-.8-.1-1.2.4-.2-.2,0-.8-.3-.3-.2-.3-.3-1,0-.7,0,.1,0,.3,0,.4,0-1,.6-.8,1-1.1l.3.4c.2,0,.4-.6.7-.2,0,.6-.5.7-.9.6,0,.1,0,.2,0,.2.2,0,.4.4.6.3.2-.5.5-1,.8-.5-.5,0-.3.4-.4.7ZM18.1,14.5c0-.2-.2-.3,0-.5.2.4.2-.3.4.1-.1.3,0,.6-.2.9l-.2-.3v-.3ZM38.3,39.8c.1.3-.2.7-.4.3.1-.1.2-.7.4-.3ZM35,33.9c0,.6-.8-.2-.5,0,.2,0,.3-.3.5,0ZM17,11.2l-.2.4c0-.1-.2-.2-.2-.4.1.1,0-.4.4,0ZM19.5,12.9c0,.2,0,.3.1.5l-.2.5c-.2,0-.4-.3-.6-.4.2,0,.5-.4.7-.5ZM17.1,11c0-.3,0-.6,0-.8.1.2.2-.2.4.1-.4.7.5.3.4.8-.3-.2-.7.4-.9-.3v.2ZM20.8,14.1c-.2-.6-.4,0-.7-.2,0-.8.8-.5.7.2ZM21.3,14.3c.2,0,.1.6.3.3,0-.2-.1-.4,0-.6l.3.3c0,.2-.2.3,0,.5-.1.2-.2.5-.4.3,0-.1,0-.3,0-.4-.2.2,0,.4-.2.6-.3-.3,0-.7,0-1ZM23.2,16.5c-.2.4-.5.4-.8,0,.2-.3.5-.2.8,0ZM18,10.8c.3-.3.6.3.9,0-.2.4-.4.3-.7.4,0-.1,0-.2-.2-.4ZM29,23.1l-.2.4c-.2-.4-.4-.4-.5,0l-.2-.3c.2-.3.6-.2.9-.2ZM19.4,11.4c-.2-.2-.4,0-.6-.2,0-.3.6-.2.6.2ZM37.9,34.3c-.3.3-.6-.1-.9,0,0-.6.6-.2.9,0ZM17.7,9c0-.2,0-.4,0-.7.2,0,.3-.1.5,0,.1.3,0,.5,0,.8.2-.7.5-.5.8-.6.3.6.6.5,1,.7-.1.5-.8.2-1.2,0,.1.1.1.3.1.4-.4,0-.5-.1-.4-.4-.3.1-1.1.6-1.4-.3.3.2.2-.1.5,0ZM21.5,13c0,.5-.1.7-.5.5.4,0,0-.5.5-.5ZM18.7,10c.2.1.3,0,.5.2-.1.3-.6.2-.5-.2ZM29.8,23.1c.1,0,.2,0,.3-.1l.3.4c.3-.5.5,0,.9-.4,0,.2.1.4,0,.6-.3-.3-.5-.1-.7,0,.1.3.2.6,0,.9-.2-.1-.4-.1-.6-.4.1-.3.3,0,.5-.5-.1-.4-.6-.1-.6-.5ZM30,23.5c-.2.3-.4.2-.6-.1.2-.2.4,0,.6.1ZM20.4,10.6c.3.2,0,.4.2.5-.1.2-.3.2-.5,0,0-.2.1-.6.3-.6ZM40.5,36.6c-.1.2-.3.5-.4.2.1-.3.3-.3.4-.2ZM19.9,9.9c.1.1.1.3.2.4-.1.3-.3.2-.4,0l.2-.4ZM26,16.3c.1.1.2.3.2.4-.2.1-.5.4-.8,0,.1-.4.4,0,.5-.4ZM21,10.6c.4.3.6-.2,1,.1-.3,0-.6.6-.9.3,0-.1,0-.2,0-.4ZM22.7,12.5l.2-.4c0,.2.3.4.3.6-.2-.3-.3,0-.4-.2ZM20.6,9.6c0-.2-.5-.5-.2-.7.3,0,0,.4.4.6l-.2.5c0-.2-.4,0-.4-.4.1-.1.3.1.4,0ZM32,23.4c-.3-.2-.2.4-.5.1,0-.4.5-.6.5-.1ZM24.3,12.6c-.2,0-.4.3-.6.1.2-.5.4-.2.6-.1ZM42.9,37c-.1.1-.2.4-.4.1,0-.4.2-.5.4-.1ZM26.3,14.3c-.2-.1-.4,0-.7-.2.1-.4.7,0,.7.2ZM33.3,23.3c.3,0,.5,0,.8.1-.2.4-.9.6-.8-.1ZM22.6,7.2c-.2.4,0,.1.2.4,0,.4-.3-.2-.4.1.3.5.4.3.7.5,0,.2.4.8,0,.6,0-.4-.2,0-.4-.4-.2.6-.5,0-.7.2-.2-.4-.4-.5-.7-.5,0,.2.2.3.1.4-.6-.5-.3-.9-.2-1.6.2.1,0,.3.1.5,0-.2.2.2.3,0-.1-.1-.2-.3-.2-.4.2-.3.4,0,.2-.5.1,0,.3-.1.5.2,0,.2-.2.1-.1.3.2,0,.4,0,.6.1ZM24.8,10.1c0-.3.2-.2.3-.4.2.5.5.1.8.3-.2.6.3,0,.4.5-.2.2-.5-.2-.8,0-.4.6-.1,1.6-.7,1.3.3-.4.6-1.5,0-1.7ZM44.7,36.4c0,.2-.3.4,0,.6.3-.3.1-.6.2-.8.1.2.2,0,.3.3-.1.7-.3.9-.4,1.5-.5-.7-.5-.6-1-.9.2-.3.5-.7.9-.7ZM34.6,23.3c0,.4-.2.5-.5.3.2-.2.3-.2.5-.3ZM21.1,6.3c0,.2.2.4,0,.5-.3.1-.4-.7,0-.5ZM26.1,11.2l-.4.8c0-.1-.2,0-.3-.2-.1-.4.3-.8.6-.6ZM35.1,23.4c.2.2.3,0,.2.4-.1-.2-.2.1-.4-.2v-.3ZM30.3,16.2c.4.4-.2.7-.4.5,0-.4.3-.1.4-.5ZM23.2,7.9c.1,0,.4.4.3.6-.2-.2-.4-.4-.3-.6ZM35.4,22.9c0,0,0,.1,0,.2,0-.2.2-.2.3-.1-.2.3-.3.4-.6.2,0-.1.2-.4.3-.3ZM35.1,21.1c-.2-.3-.4.3-.6,0,.1-.3.6-.5.6,0ZM20.5,2.5c0,.4.3.2.2-.1.2.2.2.4.1.6-.3,0-.2.2-.6,0,0-.3.1-.5.3-.6ZM48.6,36.9c-.1.3-.3,0-.4,0,.1-.3.3-.3.4,0ZM34,16.2c-.1.3-.3.2-.4,0,.1-.3.3-.2.4,0ZM39.9,23.9c.3.3,0,.8-.2.4.1-.3,0-.3.2-.4ZM35,16.6c.2-.4.8-.3.9.2-.3-.5-.5.1-.7.1,0-.3-.2,0-.2-.4ZM51.4,37.3c-.2.1-.5.3-.7,0,.2-.2.6-.4.7,0ZM26.1,3.6c-.1-.1-.6-.1-.5-.5.1-.2.6.2.5.5ZM31.7,8.4c.2.4.4.2.7.5-.2.3-.5-.2-.6.5-.1-.3-.2,0-.4-.3.2-.3.2-.2.4-.7ZM41.4,20.6c.2.3.4.5.1.8-.2,0-.3-.5-.6-.4.1-.4.3,0,.4-.4ZM30.5,4c-.2.3-.4.6-.6.5.2-.3.4-.8.6-.5ZM36.5,12.2c-.1.3-.3.2-.4,0,.1-.3.3-.2.4,0ZM34.4,8.8c-.2.3-.4.5-.6.1.2-.3.4-.1.6-.1ZM36.1,10.3c.3.3.6-.2.9,0-.1.7-.5.4-1,.5,0,.1,0,.3-.2.1,0-.2,0-.4.2-.6ZM41.7,16.7c-.3.4-.6.4-.9.3.3-.4.6-.3.9-.3ZM31.8,3.1c-.1.2-.3.2-.5.2,0-.3,0-.6,0-.9.3.2.2.5.4.7ZM30.9,3.6c-.1-.5-.3-.2-.5-.5.4-.1.6-1.1.9-.4-.3.2-.3.5-.4.9ZM32,4c-.2-.4-.5.2-.5-.3.2,0,.4-.2.7.2-.1.2,0,.3.1.5-.2.2-.4.3-.6.2,0-.2.4-.2.3-.6ZM36.7,9c-.2-.2-.3.2-.5-.2,0-.3.5-.1.5.2ZM36,9.1c.2-.2-.2-.4,0-.6.3.1.2.8,0,.6ZM37.5,10.7c.1-.3.3-.2.4-.4.2.4.3.3.5.3-.2.2-.1.2-.3.6-.1-.3-.2-.5-.4,0-.1-.1-.2-.3-.2-.4ZM47.8,23.8c-.1.4-.4.2-.4.6v-.2c-.2,0-.2,0-.2,0,0-.4.3-.7.6-.5ZM55.9,36.7c.2.1.3,0,.3.3-.1.4-.4,0-.3-.3ZM32.5,3.5c-.2,0-.4,0-.6-.2,0-.5.6,0,.6.2ZM46.4,20.7c-.2.2-.4.2-.7,0,.2-.2.4-.2.7,0ZM34.9,4c-.1-.1,0,.1-.2.3-.3,0-.3-.6-.6-.1,0,.3.4.2.2.6-.2,0-.4-.1-.5-.5.3-.5.9-.8,1.1-.2ZM44.4,17.5c.3.1.5-.4.8,0-.2.4-.4.2-.6.5-.2-.2-.2-.4-.2-.5ZM39.1,9.4c.1,0,.2.1.4.3-.1.4-.5,0-.4-.3ZM35.8,4c0,.1,0,.3,0,.4-.1,0-.3-.1-.4-.3.1-.2.3-.2.5,0ZM40.3,9.6c-.2,0-.3.6-.5.3.2-.3.3-.4.5-.3ZM42.1,11.1c-.2.4-.3,0-.4.5-.1-.2-.2-.3-.2-.5.2-.4.4-.4.6,0ZM40.8,11c.3.4.4-.4.7.2-.2.5-.7.3-.7-.2ZM36.7,5.1c-.1.5-.3,0-.5-.2.1-.3.3,0,.5.2ZM41.2,9.9c-.1.4-.3.1-.5.2,0-.4.3-.5.5-.2ZM41.8,9.2c-.3.4-.4.4-.4.9-.2,0-.2-.3-.3-.5.1-.3.3-.2.4-.4,0,0-.2,0-.2-.3.3-.2.5.1.8.4,0,.2,0,.3-.1.5-.3-.2-.1-.4-.2-.6ZM42.8,10.2c-.4.4-.8.3-1.2.2,0-.9.7-.5,1.2-.2ZM36.3,2.2c-.3.2-.6,0-.9,0,.3-.2.6-.3.9,0ZM38.4,4.9c0,.2,0,.7-.3.5,0-.1,0-.7.3-.5ZM37.8,2.8c.4.2-.2.4,0,.6.2.2.3-.4.5,0-.3.4-.6.3-.9.2,0-.4.4-.2.5-.9ZM43.3,11.3c.3-.6.8.3.7.8-.2-.4-.2-.5-.7-.8ZM43.3,10.1l-.3.5c0-.1-.2-.2-.1-.4.2.3.2-.6.4-.1ZM40.6,5.7c.2.2,0,.4,0,.6,0-.1-.2,0-.3-.2l.3-.5ZM39.4,3.7c.2.3.2.7,0,1-.3-.3-.2-1,0-1ZM42.9,9.1c.1-.4.5,0,.5.4-.3.4-.2,0-.5-.4ZM40.4,3.5c.1.2.2.3.3.3-.3.2-.4-.1-.5.5-.1-.6-.3,0-.6-.4.2-.4.5,0,.8-.3ZM42.2,4.4c-.4-.6-1.1.2-1.3-.4.4,0,1.3-.6,1.3.4ZM41.8,4.4c-.1.2.1.4,0,.6-.1,0-.2,0-.3-.3.3-.1.1-.4.4-.3ZM43.9,4.1c.2.3.3,0,.4.3-.1.2-.3.3-.5.2,0-.2,0-.3,0-.5ZM49.6,10c-.2,0-.8.5-.7-.3.2.4.7-.1.7.3ZM56.1,19.5c.3.3,0,.8-.2.5.2-.2,0-.4.2-.5ZM49.4,9.6c-.1.3-.3,0-.4,0,.1-.2,0-.8.3-.6,0,.2.1.5.2.7ZM49.6,8.7c.3.2,0,.9-.1.6,0-.2,0-.4.1-.6ZM46.8,4.5c.2.5.3-.2.6.3-.3.3-.6.3-.9.3l.3-.6ZM49.5,8l-.2.4-.2-.3c.1-.4.3-.2.4,0ZM50.7,9.8c.3-.5.3.3.6.4-.2.2-.6,0-.6-.4ZM51.5,10.2l.3.4c-.1.3-.5.5-.5,0,.2.2.2-.3.2-.4ZM57.9,19.3c-.1,0-.3-.2-.4-.3.8-.1,1.6-.2,2.4.2-.2.7-.5-.3-.7.2.2.2.3.1.2.5-.3,0-.2-.4-.4-.6-.2.5-.5-.2-.7.3.2,0,.3,0,.5.4-.1.3-.2,0-.3.4-.2-.1,0-.7-.3-.6-.2.2.2.4,0,.6-.1,0-.2,0-.4-.2,0-.3.2-.5.1-.8ZM50.6,8.5c.3.5.6,0,.8.3-.1.4,0,.7-.3.8-.3-.2,0-.5-.2-.7-.2.1-.4,0-.5.3-.2-.2,0-.5,0-.7ZM48.2,4.7c-.2.3-.4.7-.6.4.2-.2.4-.7.6-.4ZM53.1,12.1l-.2.4-.2-.3c.1-.3.3-.4.4,0ZM54.8,9.9c0,0,.2,0,.3,0-.4.5-.7-.7-.9-.8l-.3.5c-.5-.6-.9-.5-1.4-.3,0,.4-.2.8-.3.9,0-.7-.2.2-.5-.2.3-.5.6-.8.8-1.4.4.8,1.1,0,1.5-.2,0,.2-.4.4-.2.5.2-.3.4-.2.6-.5,0,0-.2,0-.2-.3.2.3.7-.3.8.3-.3-.2-.7.5-.4.9,0-.7.8-.3.8,0-.2,0-.9-.3-.7.4ZM54.9,9c0-.2.2-.5.4-.5,0,.3.3,0,.4.4-.2.3-.5.2-.8,0ZM48.3,4.9c.3-.1.6,0,.9,0-.3.2-.8.4-.9,0ZM50.9,8.1c-.1-.1-.2.2-.4-.2,0-.5.5,0,.4.2ZM52,8.3c-.1.3-.6.4-.5,0,.2.1.4,0,.5,0ZM49.7,4.9c0,.3-.3.5-.5.2.1-.3.3-.3.5-.2ZM60.6,19.5c0,.4-.3,0-.3.6-.3-.3,0-.9.3-.6ZM61.2,19.5c0,.4-.3.3-.4.7l-.2-.3c.2-.3.4-.7.6-.5ZM53.6,8.4c-.1,0-.6.4-.5,0,.2.1.3-.2.5,0ZM52.4,5.6c-.1.3-.3.4-.4,0,.1-.3.3-.4.4,0ZM56.1,9.4c.2,0,.3,0,.5,0-.2.3-.2.7-.4.5,0-.2-.2-.4,0-.5ZM57.4,10.3c.1.2.2.3.3.3v.2c0,0,0,.1-.1.2-.3-.4,0,.4-.2.5-.1-.1-.3,0-.4-.3.3-.3.3-.6.4-.9ZM56.6,8.6c0,.2.3.3.2.5-.3-.2-.5.4-.8-.2.3-.3.5.1.6-.3ZM74.4,36.4c.2.3,0,.5-.1.7,0-.1-.1-.2-.2-.2,0-.2.2-.6.3-.5ZM63.8,19.2c.2-.2.4-.1.6.2-.2.3-.2,1-.5.6.2-.4.3-.7,0-.8ZM58.7,10.5c-.2,0-.3-.3-.3-.6-.4.4-1.1.2-1.4-.5.5.4,1.1.2,1.4-.2,0,.2,0,.5.1.7,0-.4,0-.4.3-.5.1.2,0,.3,0,.5.1-.5.1-.2.3-.2-.2-.4.2-.5.3-.2,0,.3-.2.2-.4.6-.4-.1-.5-.4-.6.2ZM53.9,2.6c.3.4.5-.5.7-.5.3.5,0,.4-.2.9-.1-.4-.2,0-.4.2-.2-.2-.2-.4-.1-.6ZM58.5,8.9c.3.2.5.2.8.3-.2.2-.3.3-.5.3.1-.1-.5,0-.3-.6ZM56.1,4.1c0,.2-.2.7-.4.5.1-.1.3-.6.4-.5ZM55.7,2.3c-.1.3-.3.1-.4.5.2.2.3.1.2.5-.2-.1-.7,0-.7-.5.2-.3.5-.8.9-.5ZM60,9.8c.1.4.5-.2.4.3-.2.1-.6.3-.4-.3ZM58.6,6.4c-.2.1-.5,0-.7.2,0-.3.7-.6.7-.2ZM56.3,3c0,.1,0,.2-.1.4-.2-.2-.6,0-.6-.5.2.3.4-.3.7,0ZM62.5,9.7c-.4.3-.9.3-1.4.4,0,.2.2.4,0,.6-.1-.8-.3-.2-.6-.6.2-.4.4-.4.3-1,.4,1,1.1.2,1.7.6ZM78,36.5c-.2-.2-.4.4-.6,0,.2-.1.6-.4.6,0ZM67.9,19.2c.1.3.2.3.3,0,.2.6-.3,1.2-.7.9.3-.4.3-.4.3-.9ZM57.5,3.2c-.4.2-.7,0-1.1,0l.2-.3c.3.2.6,0,.9.3ZM63.6,12.7c-.2,0-.8.1-.8-.4.2.2.8-.3.8.4ZM62.9,10.9c.3.4.6,0,.9.4-.3.4-1,.2-1.1,0,.1.1.2-.1.2-.3ZM58,3c0,.2.1.3,0,.5-.2-.2-.3.1-.5-.2.1-.2.3-.5.4-.3ZM59.1,3.3c-.2.4-.4.3-.6.2.2,0,.4-.4.6-.2ZM62.9,9.7c.3-.4.4,0,.7.5-.1.2-.2.3-.2.5v-.2c0-.4-.2-.6-.5-.7ZM58.5,2c.3.1.6-.3,1,.2-.3,0-.2.7-.5.7-.3-.2,0-.8-.3-.7,0,.2,0,.4-.2.6-.2-.3-.1-.5,0-.8ZM60,3.3c0,.2,0,.4-.2.5-.2-.4-.3,0-.5-.4v-.2c.3.4.4,0,.7,0ZM64.9,9.9c-.3,0-1,.9-.9,0,.3.4.6-.4.9,0ZM66.7,11.4c-.2.2-.3.3-.5.2,0-.3.3-.5.5-.2ZM66.8,10.4c-.4-.2-1.2.5-1.2-.5.4.5,1.1,0,1.2.5ZM68.9,12.7c-.2.3-.3.2-.5.2,0-.3.3-.4.5-.2ZM68.4,11.3c.3.8.7.2,1,.5-.2.6-.8,0-1.2,0,.2-.2,0-.4.2-.5ZM68.5,11c.4.5.4-.7.8-.2-.3.3-.2.2-.3.6-.2,0-.6.1-.5-.4ZM70.5,11.2c-.2.4-.3.4-.5.3,0-.3.3-.7.5-.3ZM66.5,4.2c-.2.5-.4.2-.6.2.2,0,.4-.4.6-.2ZM66.3,3.8c-.1.3-.5.2-.5-.2.2.2.3-.3.5.2ZM67.3,4.9c0,.2.2.4.1.6-.1.3-.3.4-.4,0,.2-.2,0-.8.3-.6ZM67.2,3c0,.1-.2.4-.2.8.1-.2.3,0,.4.3-.3.2-.6.8-.9.4.4-.4,0-2,.6-1.5ZM72.7,12.9c-.1.4-.5.2-.4-.1.1.1.3-.3.4.1ZM68.1,4.4c-.1.3-.3.4-.4,0,.1-.3.3-.3.4,0ZM72,10.8c.3,0,.8-.2.9.3.2-.3.6.2.6-.4l.2.4c-.1.3-.3.1-.3.4-.3-.2-.5-.3-.6.3-.3-.2,0-.4-.1-.6l-.3.4c-.3-.5,0-.8-.5-.9ZM74.1,11.5c.3.6-.4.9-.6.5,0-.2,0-.3,0-.5.4,0,.3.7.5,0ZM74.8,10.9c.3.3,0,.7-.2,1,0-.1-.2.2-.3-.1.2-.6.3-.2.5-.9ZM76.2,13c-.2.2-.3.4-.5,0,.2-.3.3-.3.5,0ZM92.3,35.8c.1-.2.6-.3.5.1-.1-.2-.3.1-.3.3,0-.2-.1-.3-.1-.5ZM79.4,11.7c.3.6-.6,1.2-.5.4.3.2.2-.4.5-.4ZM93.2,35.7c.3-.2.9-.5,1,.3-.4-.3-.2.5-.4.7-.2-.4-.1-.7-.1-1-.2.4-.5.6-.5,0ZM94.9,35.7c-.1,0-.3.2-.4,0,0-.6.7-.4.4,0ZM79.3,4.2c-.2.2-.4.2-.6,0,.2-.4.4-.2.6,0ZM80.3,3.7c.2-.7.3,0,.5,0-.1-.5.1-.8.3-1.1.3.4-.4.8,0,1.2,0-.1,0-.3.2-.4,0,0,.5.3.4.6-.3-.3-1.6,1.3-1.3,0-.2,0-.8.4-.8-.2.1-.4.8-.4.9,0ZM80.7,2.8c-.3.3-.6.2-.9.2.3-.3.6-.5.9-.2ZM98.6,34.6c.2.3.8-.5.8.2-.3,0-.8.5-.8-.2ZM81.8,2.5c0,.2.2.3.2.5-.3-.3-.4-.2-.5.2-.2-.5.1-.6.4-.7ZM82.9,3.6c.1.4.3-.2.4.3-.2.2-.6,0-.4-.3ZM82.4,1.6c.2.2.2.4.1.6,0,0-.2-.3-.2-.2,0,0-.1.2-.2,0l.3-.4ZM101.4,34.8c0,.1,0,.3-.2.4-.1-.4-.3-.2-.4-.3.2-.3.4-.4.6-.1ZM85,3.6c0,.2.3.2.3.3,0-.1,0-.3,0-.5.3,0,.4.5.2.8-.3-.1-.6,0-.9-.2.2-.2.3-.4.4-.4ZM102.3,35.6l-.2-.4c.2-.4.5.1.2.4ZM86.6,4.1c.2-.1.4-.2.5.1-.2.3-.4.2-.5,0,0,0,0-.1,0-.2ZM104.9,34.4c.1.1.3,0,.4.3,0,.1,0,.7-.2.4.1-.2,0-.5-.1-.3,0,.2,0,.4,0,.6,0-.2-.2.1-.3-.2.3-.2,0-.6.3-.8ZM88.4,3.3c.3.2.8-.1.9.3-.2-.1-.4,0-.5,0,0,.2.2.1.3.3-.2.2-.4.3-.4.6-.1-.4-.2-.9-.2-1.3ZM106,34.5c0,.2,0,.4-.2.6-.1-.3,0-.9.2-.6ZM89.6,3.8c.3.4.2.8.1,1.2,0-.1-.2-.2-.2-.2.1-.3-.2-.7,0-1ZM106.4,35c-.1.3-.3.3-.4,0,.1-.3.3-.3.4,0ZM90.4,3.6c-.3,0-.6.2-.9,0,.3,0,.4-.2.7-.2,0,0,0,.2,0,.3,0,0,.2-.2.2,0ZM90.8,4c0,.1,0,.3,0,.5-.3.4-.7.3-1,0,.2-.2,0-.5.3-.7.2.2.5,0,.7.2ZM107.9,34.5c-.2.3-.4.5-.3.8-.1-.3-.3,0-.5-.1.3-.6-.1-.4,0-.7.2.4.5-.1.8,0ZM91.3,3c.1.2,0,.3.2.5,0,0,0-.2,0-.3.3.2,0,.4,0,.6,0,0-.1-.3-.2-.2,0,.1,0,.2-.1.4l-.2-.3c.3-.4.3-.3.4-.7ZM92.1,4.4c.2-.2.4,0,.6,0-.2.4-.6.5-.6,0ZM93.4,3.7c.2,0,.4-.3.5,0-.2.4-.3,0-.5.2,0,0,.1.2,0,.3,0-.1,0-.3-.1-.4ZM94.7,4.5c-.2-.2-.4.1-.6-.2.2-.2.6-.2.6.2ZM94.6,4.6c0,0,.1,0,.2,0,.1.2.2.4,0,.6,0-.1-.2,0-.3-.1,0-.1,0-.2,0-.4ZM96,4.8c-.3.4-.6.4-1,.1.3-.4.6,0,1-.1ZM96.2,3.8c-.1.6-.5.5-.8.4.3-.4.5-.7.8-.4ZM97.6,5.2c0,.2,0,.3.2.5-.3.3-.5.5-.8,0,.3,0,.6-.2.6-.5ZM101.2,4.2c-.2.2.2,0,.2.4-.1.3-.5,0-.4-.3.1.2,0-.2.2,0ZM125.5,5.9c.1.2.3,0,.4.4-.3.4-.5.4-.8.4v-.3c.2-.2.1,0,.3-.6ZM127.4,6.6c-.2-.5-.6.2-.5-.5.1.2.6,0,.5.5ZM146.4,36.6c-.6.6.5.3-.2,1.1-.1-.4,0-.4-.3-.5,0-.2.3-.9.5-.6ZM145.7,37.6c0-.1-.1-.3-.2-.2-.1.2,0,.8-.3.7,0-.2.2-.4,0-.6.3,0,.4-.8.7-.8,0,.3,0,.7-.2,1ZM133.2,6.5c.2-.2.4,0,.5,0,0,.3-.3.2-.5.6-.2-.2,0-.4,0-.6ZM147.3,36.6c.1.3,0,.6,0,.9-.1-.2-.3.3-.4,0,.2-.4.2-.4.5-.8ZM134.4,7c-.3-.2-.3.4-.5,0,0-.2.6-.7.5,0ZM147.4,36.8c.1-.2.3-.2.3,0,0,.2-.2.4-.3.3,0-.1,0-.2,0-.4ZM151.9,7.3c-.2-.3-.5.2-.7,0,.3-.4.7-.4.7,0ZM152.9,7.3c-.3,0-.6,0-.9-.3.3-.3.6-.3.9.3ZM153.3,7l-.3.3v-.3c0-.3.2,0,.3,0ZM169.4,25c.1.3,0,.6-.3.9-.3.2-.7,0-1.2.4,0-.1-.1-.3,0-.4.4-.4,1-.7,1.5-.9ZM170.9,25.3c0,.2,0,.4,0,.6-.4,0-.8.2-1.2,0,.4-.3.8-.4,1.2-.6ZM164.2,7.3c-.1.3-.6.6-.8.4.3-.4.5-.3.8-.4ZM172.8,24.8c-.6.4-1,.4-1.4,1.1l-.2-.4c.4-.1,1-1.2,1.6-.7ZM168.9,5.3c.1-.1.2-.2.3-.2.2.5-.3.8,0,1.3-.2,0-.5.4-.7,0,.4,0,.6-.5.3-1.1ZM176.9,26.1c.1.3-.1.5-.1.7-.1-.2-.3,0-.3-.4.2-.2.3,0,.5-.3ZM176.1,18.2c.1.1.4-.5.5-.6.2.2,0,.4,0,.6,0,0,.1,0,.2.1-.3,0-.5-.1-.5.5-.1,0-.2-.4-.1-.6ZM175.5,9.1c0-.3-.3.2-.4-.2.2-.4.5-.1.4.2ZM177.1,9.5c-.3.2-.7.4-.9,0,.3,0,.7-.4.9,0ZM178.2,10c-.2.1-.4.3-.5-.1.2-.2.4-.1.5.1ZM178.5,8.2c0,.3.2.3.2,0,.2.4-.4.6-.4.3.1-.1.1-.2.2-.3ZM188.1,14c0,.3-.4.5-.6.4,0-.2.5-.7.6-.4Z"/>
          <path class="cls-1" d="M49.2,2.4c0,.2.2,0,0,.3.6-.9,1.3-.2,1.9-.7-.6-.3-1.1-.2-1.7-.1,0,.1,0,.2.1.4-.2,0-.3.3-.5.2Z"/>
          <path class="cls-1" d="M14.1,38c.2.2.3-.2.5-.2-.2,0-.4-.2-.5.2Z"/>
          <path class="cls-1" d="M23.6,34.7c-.1.2,0,.3-.1.5.1,0,.2-.2.2-.3,0,.1,0,.2.2.4,0-.4-.1-.4-.3-.5Z"/>
          <path class="cls-1" d="M13.1,22.3c-.2.1.4,0,.4.5,0-.2,0-.4,0-.6-.3-.2,0,.4-.4.1Z"/>
          <path class="cls-1" d="M17.7,27.3c-.1.2,0,.4,0,.5,0-.2,0-.3.2-.3,0-.3-.2-.1-.3-.2Z"/>
          <path class="cls-1" d="M16.7,25.2c0-.1,0-.3-.1-.4-.1.2-.2.4-.1.6.1.1.2-.3.3,0,0-.1,0-.1,0,0Z"/>
          <path class="cls-1" d="M26.7,37.3c.3.4.1-.2.2-.4.1-.2,0,.3.3.3.2-.6.5-.5.9-.2,0-.2,0-.4,0-.6-.2.3-.7.4-1.1.2,0,.4-.2.3-.2.7Z"/>
          <path class="cls-1" d="M15.8,23.1c.7-.2,1.2-.1,1.8-.7-.1-.2-.3,0-.2-.3-.3-.1-.1.2-.4.3,0-.5-.9,0-.7-.4-.2-.3-.4.6-.5,1.1Z"/>
          <path class="cls-1" d="M30,40.1c.2.3.8.2,1.2,0-.4,0-.8,0-1.2,0Z"/>
          <path class="cls-1" d="M5.2,9c0,.3-.2.2-.3.6.4.1.4-.2.5-.3,0-.2-.1,0-.2-.2Z"/>
          <path class="cls-1" d="M17.3,22.9c.2-.1.4,0,.6-.3-.3-.4-.4.2-.6.3Z"/>
          <path class="cls-1" d="M28.6,35.3c-.1.2,0,.3,0,.5.1.2.3,0,.4-.1,0-.3-.2.1-.4-.3Z"/>
          <path class="cls-1" d="M12.3,13c0,0,0-.2-.1-.3,0-.3.2,0,.3-.4-.3-.1-.5-.3-.7.3.3.2.3,0,.5.4Z"/>
          <path class="cls-1" d="M19.7,17.5c.3-.3.3.2.6.1,0-.4,0-.4.1-.7-.2.3-.7.3-.7.6Z"/>
          <path class="cls-1" d="M35.1,36.3c-.1-.3.3-.2.2-.6-.2-.3-.2.3-.4,0,0,.4-.2.6.1,1.1.1-.2.3-.3.4-.2,0-.2-.2-.1-.3-.3Z"/>
          <path class="cls-1" d="M36.1,36.6c.3.3.5-.4.8.1.1-.4-.2-.2-.1-.5-.2.1-.5,0-.7.3Z"/>
          <path class="cls-1" d="M37.2,36.1c-.1-.1,0-.3-.2-.4-.3.3-.6.2-1,0,.1.8.6.1.9.8.1-.5.4-.2.6.2.3-.2.3-.4.5-.7-.1,0-.2,0-.4-.2-.1.2,0,.3,0,.5,0,0-.1,0-.2.1,0-.2,0-.4-.2-.5-.1,0-.2.1-.2.4Z"/>
          <path class="cls-1" d="M16.8,2.4c0,.1,0,.1,0,0,.1.1.2.2.2.3.1,0,.2-.2.3-.3-.2-.1-.3,0-.5-.1Z"/>
          <path class="cls-1" d="M23,4.4c0,.2.9.6,1.1,0,0,0-.4.3-.4-.2-.3-.2-.4.5-.7,0Z"/>
          <path class="cls-1" d="M26.3,5.5c.3.1.5.8.8.3-.2-.7-.7,0-.7-.9-.2.2.2.4,0,.6Z"/>
          <path class="cls-1" d="M39.3,18.4c0,.4.2.1.3.3,0-.1,0-.4.2-.3,0,0,0-.1,0-.2v-.2c0,.1-.4.7-.3.3-.1-.1,0,.2-.2.1Z"/>
          <path class="cls-1" d="M33.1,5.9c0,.3.5.2.8.3,0,.5.5.9.7,1.1,0-.5-.3-1-.4-1.5,0,.9-.4-.1-.8,0,0,.2,0,.3-.2.2Z"/>
          <path class="cls-1" d="M35.3,7.5c.1.4.7.2,1,.3.1-.3-.4-.1-.3-.5,0,.1-.4.5-.7.2Z"/>
          <path class="cls-1" d="M34.5,6.1c-.2.2,0,.3.1.2.1.1.1.3.1.5.1,0,.2,0,.3,0-.1-.2-.3-.8.2-.3,0-.2-.1-.3-.2-.4-.1.2-.3.2-.5,0Z"/>
          <path class="cls-1" d="M37.6,6.4c-.1,0-.2,0-.3,0-.2.2,0,.4-.1.6.2,0,.2-.3.4-.6Z"/>
          <path class="cls-1" d="M40,2.3c0,.3,0,.1-.2.4.2.2,0,.4.2.6l.2-.3c-.1-.2-.3-.5,0-.4.1-.3-.2,0-.3-.4Z"/>
          <path class="cls-1" d="M44.9,8.6c-.2-.1,0,.2,0,0,0,.2,0,.4,0,.6.2.1.4-.6.2-.7,0,.1-.1.1-.2,0Z"/>
          <path class="cls-1" d="M52.3,19.8c0,0,0,0,0,0,.2-.3.4.5.5,0-.2-.5-.4-.1-.6-.2,0,.1,0,.2,0,.4Z"/>
          <path class="cls-1" d="M46.4,1.5c-.3-.4-.5-.3-.7-.2.3.5.6.3.9.7,0-.7.5-.3.8-.6,0,0-.9-.5-1,0Z"/>
          <path class="cls-1" d="M47.2,2.1c.3,0,.6-.4,1,0,0-1,1,.2,1.4-.3,0-.2-.1-.3,0-.5-.3,0-.5.6-.8,0-.4.4-.8.1-1.1.1,0,.2.1.3.2.5-.2.2-.4-.2-.5.3Z"/>
          <path class="cls-1" d="M46.4,0c.2,1,1.5.8,1.8.4-.6,0-1.4.4-1.8-.4Z"/>
          <path class="cls-1" d="M51,.9c.2.1.5.2.7.2,0-.4-.5-.3-.7-.2Z"/>
          <path class="cls-1" d="M54.2,1.3c.4.4,1.3.4,1.9.3-.3-.5-.5,0-.6-.6,0,.7-.5-.1-.7.4-.2-.3.1-.6-.2-.6.1.5,0,.6-.3.5Z"/>
          <path class="cls-1" d="M54.1.4c0,.5.5,0,.7.2.1-.3-.2-.1-.3-.5-.2.4-.1.5-.4.3Z"/>
          <path class="cls-1" d="M56.2,1.6c.4.3.9.4,1.3.3-.2-1.1-.9-.5-1.3-.3Z"/>
          <path class="cls-1" d="M62.7,2.3c.2,0,.4,0,.7,0l-.2-.3c-.1.4-.3,0-.5.4Z"/>
          <path class="cls-1" d="M66.1,1l-.3.5c.3.1.3-.6.7-.3.1-.2-.2-.1-.3-.3Z"/>
          <path class="cls-1" d="M69.6,1.5c.1.9.3-.4.7.5,0-.1,0-.2.1-.4-.3-.4-.5,0-.8-.1Z"/>
          <path class="cls-1" d="M75.3,1.4c-.2-.1,0,.2,0,0,.1.2,0,.4,0,.6.2,0,.4-.4.6,0,.2-.9.6-.3.9-.4.3-.2-.1-.4.1-.5-.3.2-.7-.2-1,.2-.1-.2,0-.3-.2-.5,0,.3-.3.5-.4.4Z"/>
          <path class="cls-1" d="M85,2.2c.3.4.6-.5,1,0,0-.1,0-.3-.2-.5-.3.5-.5-.1-.8.4Z"/>
          <path class="cls-1" d="M91.3,2c0,.3.7.4.8.1-.3,0-.5.1-.8-.1Z"/>
          <path class="cls-1" d="M97.1,4.3c0-.2,0-.5.2-.7-.2-.1-.3,0-.5.1.1.3.2,0,.4,0,.1.2-.4.2,0,.5Z"/>
          <path class="cls-1" d="M120,4.2c0,.5.4.2.6.4,0,0,0-.1,0-.2v-.2c-.3.3-.4,0-.6,0Z"/>
          <path class="cls-1" d="M136.8,39.4c.3.1.6,0,.9.3.2-.5.6-.2.9-.1,0,0,0-.2,0-.3,0,0,0-.1,0-.2-.7.3-1.2,0-1.9.3Z"/>
          <path class="cls-1" d="M154.9,4.6c.3-.2,0-.5.4-.7,0,0-.1,0-.2-.1v.2c.1.3-.5.4-.2.6Z"/>
          <path class="cls-1" d="M157.4,5.6c.2.6,0-.7.4-.4.2-.3-.2-.4-.3,0,.1.2.1.3,0,.5Z"/>
        </g>
      </g>
    </g>
  </g>
</svg>